<?xml version="1.0" standalone="no"?>
<!DOCTYPE svg PUBLIC "-//W3C//DTD SVG 20010904//EN"
 "http://www.w3.org/TR/2001/REC-SVG-20010904/DTD/svg10.dtd">
<svg version="1.0" xmlns="http://www.w3.org/2000/svg"
 width="5000.000000pt" height="5000.000000pt" viewBox="0 0 5000.000000 5000.000000"
 preserveAspectRatio="xMidYMid meet">

<g transform="translate(0.000000,5000.000000) scale(0.100000,-0.100000)"
fill="#000000" stroke="none">
<path d="M20598 40672 c13 -1407 -121 -2980 -378 -4434 -947 -5352 -3613
-10695 -8044 -16116 l-191 -233 -618 -1352 -617 -1351 0 -581 c0 -577 -7 -842
-35 -1405 -45 -883 -41 -1633 8 -1870 78 -371 265 -702 582 -1029 252 -260
549 -481 912 -680 l108 -59 200 -21 c1785 -185 3561 -208 5840 -76 879 51
1689 114 3360 260 1125 98 1639 141 2285 190 2683 202 4605 243 6626 139 l311
-16 94 47 c270 136 669 374 1054 630 495 328 699 479 2375 1741 1636 1233
2853 2061 4339 2952 343 205 1062 621 1274 736 48 26 87 49 87 51 0 2 -141
-65 -312 -150 -1381 -676 -3010 -1277 -4743 -1748 -170 -46 -322 -87 -337 -91
-24 -5 -205 131 -1675 1259 -906 697 -1666 1286 -1688 1310 -325 353 -1015
1153 -1015 1176 0 3 216 239 481 525 461 497 483 519 523 525 23 4 163 15 311
25 213 15 389 19 830 19 548 0 681 -5 1115 -41 1861 -152 3803 -703 5800
-1644 388 -183 1125 -561 1410 -723 l55 -31 -22 34 c-130 207 -835 1226 -1138
1645 -2517 3484 -5359 6505 -8635 9176 -1995 1627 -4313 3217 -6545 4489 -99
56 -196 111 -215 122 -37 22 -23 8 290 -276 1903 -1728 3432 -3584 4505 -5471
1290 -2267 1980 -4664 2051 -7120 l6 -220 -507 -390 c-279 -214 -510 -391
-514 -393 -4 -1 -48 48 -97 110 -1768 2242 -3297 4890 -4581 7938 -443 1052
-862 2165 -1264 3359 -82 245 -99 305 -99 355 0 34 90 1719 200 3746 109 2026
197 3687 194 3690 -5 4 -628 41 -630 37 0 -1 -281 -5179 -623 -11507 -342
-6328 -625 -11539 -628 -11580 l-6 -75 -282 846 -282 845 48 429 c340 3033
539 5423 624 7495 35 866 40 1147 40 2245 0 1235 -11 1643 -66 2580 -192 3273
-765 6223 -1818 9355 -118 351 -327 949 -334 956 -1 1 -1 -158 1 -354z m3019
-18754 c-3 -8 -6 -5 -6 6 -1 11 2 17 5 13 3 -3 4 -12 1 -19z m0 -140 c-3 -8
-6 -5 -6 6 -1 11 2 17 5 13 3 -3 4 -12 1 -19z m-10 -50 c-3 -8 -6 -5 -6 6 -1
11 2 17 5 13 3 -3 4 -12 1 -19z m0 -90 c-3 -8 -6 -5 -6 6 -1 11 2 17 5 13 3
-3 4 -12 1 -19z m0 -50 c-3 -8 -6 -5 -6 6 -1 11 2 17 5 13 3 -3 4 -12 1 -19z
m-10 -40 c-3 -8 -6 -5 -6 6 -1 11 2 17 5 13 3 -3 4 -12 1 -19z m0 -50 c-3 -8
-6 -5 -6 6 -1 11 2 17 5 13 3 -3 4 -12 1 -19z m0 -50 c-3 -8 -6 -5 -6 6 -1 11
2 17 5 13 3 -3 4 -12 1 -19z m0 -40 c-3 -8 -6 -5 -6 6 -1 11 2 17 5 13 3 -3 4
-12 1 -19z m-10 -50 c-3 -8 -6 -5 -6 6 -1 11 2 17 5 13 3 -3 4 -12 1 -19z m0
-50 c-3 -8 -6 -5 -6 6 -1 11 2 17 5 13 3 -3 4 -12 1 -19z m0 -40 c-3 -8 -6 -5
-6 6 -1 11 2 17 5 13 3 -3 4 -12 1 -19z m0 -50 c-3 -8 -6 -5 -6 6 -1 11 2 17
5 13 3 -3 4 -12 1 -19z m-10 -50 c-3 -7 -5 -2 -5 12 0 14 2 19 5 13 2 -7 2
-19 0 -25z m0 -40 c-3 -8 -6 -5 -6 6 -1 11 2 17 5 13 3 -3 4 -12 1 -19z m0
-50 c-3 -8 -6 -5 -6 6 -1 11 2 17 5 13 3 -3 4 -12 1 -19z m0 -50 c-3 -7 -5 -2
-5 12 0 14 2 19 5 13 2 -7 2 -19 0 -25z m-10 -40 c-3 -8 -6 -5 -6 6 -1 11 2
17 5 13 3 -3 4 -12 1 -19z m0 -50 c-3 -8 -6 -5 -6 6 -1 11 2 17 5 13 3 -3 4
-12 1 -19z m0 -50 c-3 -7 -5 -2 -5 12 0 14 2 19 5 13 2 -7 2 -19 0 -25z m0
-40 c-3 -8 -6 -5 -6 6 -1 11 2 17 5 13 3 -3 4 -12 1 -19z m-10 -50 c-3 -7 -5
-2 -5 12 0 14 2 19 5 13 2 -7 2 -19 0 -25z m0 -50 c-3 -7 -5 -2 -5 12 0 14 2
19 5 13 2 -7 2 -19 0 -25z m0 -40 c-3 -8 -6 -5 -6 6 -1 11 2 17 5 13 3 -3 4
-12 1 -19z m0 -50 c-3 -7 -5 -2 -5 12 0 14 2 19 5 13 2 -7 2 -19 0 -25z m-10
-50 c-3 -7 -5 -2 -5 12 0 14 2 19 5 13 2 -7 2 -19 0 -25z m7367 -10 c-10 -13
-140 -153 -288 -312 l-270 -289 -23 29 c-13 16 -23 31 -22 34 0 6 612 559 618
560 2 0 -4 -10 -15 -22z m-134 -32 c-64 -63 -505 -456 -511 -456 -4 0 -14 10
-22 23 -15 23 -11 26 272 244 157 122 288 222 291 222 2 1 -11 -14 -30 -33z
m-7233 -38 c-2 -13 -4 -3 -4 22 0 25 2 35 4 23 2 -13 2 -33 0 -45z m-7 -143
c-7 -109 -7 -110 -8 -29 -2 70 6 151 13 142 1 -2 -1 -52 -5 -113z m-70 -1325
c-34 -628 -59 -1144 -56 -1147 3 -3 985 96 2181 221 1197 125 2182 226 2190
224 13 -3 -4515 -3496 -4545 -3506 -10 -4 -11 8 -7 49 4 30 71 1251 149 2714
79 1463 144 2644 146 2623 2 -20 -24 -550 -58 -1178z m-6426 -160 c2739 -533
4982 -972 4985 -975 5 -5 99 -2418 100 -2569 l1 -68 -82 73 c-261 231 -480
477 -595 668 -44 73 -51 80 -80 81 -21 0 -33 6 -37 18 -15 51 -316 1549 -316
1573 l0 29 -1375 0 -1375 0 0 -284 c0 -157 -4 -287 -9 -290 -14 -9 -6503 22
-6510 31 -7 7 274 2650 284 2680 2 7 10 11 17 8 7 -2 2254 -441 4992 -975z
m-5225 -535 c-71 -643 -128 -1173 -129 -1177 0 -5 -99 -8 -221 -8 -205 0 -220
1 -215 18 3 9 148 503 321 1097 359 1227 365 1248 369 1244 2 -2 -54 -530
-125 -1174z m-292 -41 l-332 -1139 -178 -3 c-98 -1 -184 1 -191 5 -10 6 116
290 507 1146 286 625 522 1136 524 1134 1 -2 -147 -516 -330 -1143z m20843
-1019 c577 -781 1046 -1423 1042 -1426 -4 -4 -158 -39 -342 -78 -1840 -386
-3752 -663 -5925 -860 -629 -57 -1505 -124 -1514 -116 -3 3 22 34 56 68 33 34
779 836 1658 1782 879 946 1619 1742 1645 1768 l47 49 1124 118 c618 65 1132
117 1142 116 11 0 402 -522 1067 -1421z m366 39 c709 -724 1287 -1319 1285
-1323 -4 -5 -534 -131 -537 -128 -1 1 -450 610 -999 1352 -549 743 -1009 1365
-1023 1383 -13 17 -22 32 -20 32 2 0 585 -592 1294 -1316z m-3812 1114 c-22
-25 -3336 -3592 -3368 -3625 -20 -21 -40 -23 -456 -47 -728 -43 -699 -42 -675
-18 11 11 916 824 2010 1807 1095 983 2007 1804 2028 1823 l37 36 188 22 c103
12 202 22 221 23 l34 1 -19 -22z m-529 -39 c-4 -6 -912 -825 -2019 -1821
-1106 -996 -2022 -1822 -2036 -1834 -26 -24 -32 -24 -460 -43 -239 -11 -484
-21 -545 -23 l-110 -3 3 35 c1 19 10 42 20 51 18 18 4596 3540 4647 3576 25
18 67 25 265 46 129 14 236 25 238 26 2 0 0 -4 -3 -10z m4873 -1149 c864 -665
1406 -1088 1398 -1092 -16 -9 -535 -138 -556 -138 -14 0 -2063 2080 -2285
2319 -69 75 -69 75 -19 36 28 -22 686 -528 1462 -1125z m-10864 -377 l257
-772 -36 -652 c-19 -359 -37 -655 -39 -657 -3 -2 -8 18 -12 45 -4 26 -104 672
-223 1435 -119 764 -214 1385 -210 1380 3 -4 122 -354 263 -779z m-3144 -38
l0 -725 -422 2 -423 3 -3 723 -2 722 425 0 425 0 0 -725z m1781 -5 c81 -399
144 -728 140 -731 -3 -3 -203 -4 -443 -1 l-438 4 0 679 0 679 -70 0 -70 0 0
-682 0 -681 -277 6 c-153 4 -322 7 -375 7 l-98 0 0 725 0 725 742 -2 742 -3
147 -725z m1274 -665 c113 -720 208 -1321 210 -1335 5 -25 5 -25 -18 4 -101
132 -190 240 -252 305 l-73 76 -41 1090 c-38 1009 -45 1224 -35 1185 2 -8 96
-604 209 -1325z m-10725 440 l0 -415 -297 2 -298 3 -3 400 c-1 220 0 406 3
412 3 10 72 13 300 13 l295 0 0 -415z m718 -7 l2 -418 -223 0 c-123 0 -252 3
-286 6 l-61 7 0 407 c0 224 3 410 7 413 4 4 131 6 282 5 l276 -3 3 -417z m760
-1 l2 -417 -307 2 -308 3 -3 405 c-1 223 0 411 3 418 3 10 70 12 307 10 l303
-3 3 -418z m1470 -4 l2 -423 -285 0 -285 0 0 410 0 410 -75 0 -75 0 0 -410 0
-409 -292 5 c-161 3 -299 7 -305 10 -10 3 -13 94 -13 412 0 225 3 412 7 415 3
4 302 6 662 5 l656 -3 3 -422z m792 2 l0 -425 -320 0 -320 0 0 418 c0 230 3
422 7 425 3 4 147 7 320 7 l313 0 0 -425z m785 -5 l0 -425 -105 -3 c-58 -2
-201 0 -317 3 l-213 7 0 417 c0 230 3 421 7 424 4 4 146 6 317 5 l311 -3 0
-425z m730 0 l0 -425 -290 0 -290 0 -3 415 c-1 228 0 421 3 428 3 10 67 12
292 10 l288 -3 0 -425z m723 -37 l2 -433 -300 0 -300 0 0 428 c0 236 3 432 7
435 4 4 137 6 297 5 l291 -3 3 -432z m697 -3 l0 -435 -45 -3 c-25 -2 -150 -1
-277 3 l-233 7 0 427 c0 235 3 431 7 434 4 4 128 6 277 5 l271 -3 0 -435z
m-2885 -1410 l0 -490 -590 0 -590 0 0 485 0 485 163 3 c89 1 354 4 590 5 l427
2 0 -490z m1280 0 l0 -490 -530 0 -530 0 0 490 0 490 530 0 530 0 0 -490z
m1365 -15 l0 -490 -560 0 -560 0 -3 480 c-1 264 0 486 3 493 3 10 121 12 562
10 l558 -3 0 -490z m1265 0 l0 -495 -520 0 -520 0 0 495 0 495 520 0 520 0 0
-495z m1140 0 l0 -495 -457 2 -458 3 -3 480 c-1 264 0 486 3 493 3 9 105 12
460 12 l455 0 0 -495z m1022 9 c222 -267 405 -490 406 -495 2 -5 -232 -9 -602
-9 l-606 0 0 495 0 495 200 0 199 0 403 -486z m13173 -113 c-5 -10 -671 -505
-715 -533 -14 -9 -74 -23 -135 -32 -60 -10 -315 -48 -565 -86 -3051 -463
-5804 -782 -8340 -965 -1462 -105 -2704 -163 -4435 -207 -669 -17 -3655 -17
-4440 0 -1467 32 -2474 62 -3909 117 -352 14 -648 25 -658 25 -17 0 -18 12
-18 171 l0 172 183 -7 c2136 -78 3754 -109 5662 -109 1275 0 1938 7 2885 33
3923 107 7551 432 12270 1101 512 72 1691 246 1990 293 118 19 219 34 223 35
5 1 6 -3 2 -8z"/>
<path d="M25610 39320 c-137 -10 -241 -22 -397 -47 l-103 -16 0 -31 c-1 -17
-20 -380 -44 -806 -24 -426 -42 -776 -42 -777 1 -1 62 16 137 37 501 141 983
198 1589 187 712 -13 1185 -78 2740 -372 1230 -233 1787 -308 2478 -335 385
-16 859 6 1172 54 83 12 84 13 40 19 -25 3 -125 13 -223 22 -471 43 -1011 151
-1527 305 -609 183 -1048 350 -2165 825 -786 334 -1160 480 -1581 618 -499
164 -970 268 -1394 307 -162 15 -532 20 -680 10z"/>
</g>
</svg>
