<svg xmlns="http://www.w3.org/2000/svg" xmlns:xlink="http://www.w3.org/1999/xlink" width="500" zoomAndPan="magnify" viewBox="0 0 375 374.999991" height="500" preserveAspectRatio="xMidYMid meet" version="1.0"><defs><clipPath id="310bdcbfc0"><path d="M 31.289062 227.808594 L 344.324219 227.808594 L 344.324219 296.796875 L 31.289062 296.796875 Z M 31.289062 227.808594 " clip-rule="nonzero"/></clipPath></defs><rect x="-37.5" width="450" fill="#ffffff" y="-37.499999" height="449.999989" fill-opacity="1"/><rect x="-37.5" width="450" fill="#ffffff" y="-37.499999" height="449.999989" fill-opacity="1"/><path fill="#d8e7ee" d="M 144.472656 138.324219 C 144.472656 138.324219 98.46875 140.03125 96.476562 137.898438 C 94.484375 135.765625 93.914062 129.941406 105.019531 130.933594 C 105.019531 130.933594 94.910156 117.859375 110.433594 115.445312 C 125.957031 113.03125 124.105469 125.25 124.105469 125.25 C 124.105469 125.25 139.488281 116.582031 135.359375 130.652344 C 135.359375 130.652344 139.203125 127.808594 140.34375 132.78125 C 140.34375 132.78125 164.269531 137.328125 144.472656 138.324219 " fill-opacity="1" fill-rule="nonzero"/><path fill="#d8e7ee" d="M 252.953125 110.957031 C 252.953125 110.957031 238.003906 111.40625 239.992188 107.628906 C 241.980469 103.851562 256.398438 104.421875 256.398438 104.421875 C 256.398438 104.421875 255.167969 98.5 259.648438 96.472656 C 264.128906 94.449219 268.746094 95.832031 268.746094 95.832031 C 268.746094 95.832031 262.839844 79.851562 275.191406 78.652344 C 287.546875 77.457031 286.113281 91.734375 286.113281 91.734375 C 286.113281 91.734375 288.28125 85.25 294.421875 89.132812 C 300.558594 93.015625 296.027344 100.871094 296.027344 100.871094 C 296.027344 100.871094 299.546875 96.183594 304.644531 98.96875 C 309.742188 101.753906 308.78125 106.199219 308.78125 106.199219 C 308.78125 106.199219 323.652344 107.464844 319.316406 109.625 C 314.984375 111.789062 252.953125 110.957031 252.953125 110.957031 " fill-opacity="1" fill-rule="nonzero"/><g clip-path="url(#310bdcbfc0)"><path fill="#f1f1f1" d="M 107.601562 228.21875 C 107.601562 228.21875 18.773438 265.246094 32.785156 273.277344 C 52.738281 284.710938 294.164062 299.371094 299.824219 296.410156 C 305.488281 293.453125 350.375 251.960938 343.636719 238.304688 C 338.25 227.402344 195.507812 227.75 133.574219 228.101562 C 120.929688 228.171875 111.652344 228.242188 107.601562 228.21875 " fill-opacity="1" fill-rule="nonzero"/></g><path fill="#ffffff" d="M 142.96875 203.871094 C 141.609375 203.742188 140.25 204.089844 139.050781 204.746094 C 124.652344 212.609375 30.910156 264.191406 35.886719 271.394531 C 41.28125 279.195312 288.636719 297.21875 295.378906 293.585938 C 299.296875 291.472656 324.636719 264.273438 332.042969 234.40625 C 335.414062 220.820312 326.648438 179.664062 308.445312 155.097656 C 306.035156 151.84375 304.96875 153.578125 303.734375 155.050781 C 293.78125 166.921875 280.011719 216.921875 142.96875 203.871094 " fill-opacity="1" fill-rule="nonzero"/><path fill="#e9ad68" d="M 301.847656 188.945312 L 317.007812 177.191406 C 312.066406 166.140625 307.226562 158.832031 306.027344 158.953125 C 305.128906 159.042969 302.777344 166.066406 294.863281 174.855469 C 297.386719 178.777344 300.042969 184.554688 301.847656 188.945312 " fill-opacity="1" fill-rule="nonzero"/><path fill="#73a633" d="M 318.234375 180.011719 L 302.613281 191.105469 C 303.886719 194.402344 303.601562 194.054688 303.601562 194.054688 L 299.554688 195.941406 C 296.882812 188.328125 293.539062 182.464844 291.382812 178.460938 C 285.738281 183.921875 277.925781 189.761719 267.078125 194.886719 C 270.179688 200.132812 276.101562 210.585938 276.101562 213.960938 C 276.101562 217.0625 273.871094 222.144531 272.433594 225.089844 C 279.785156 226.902344 286.820312 228.753906 288.820312 229.390625 C 290.878906 225.109375 292.421875 221.421875 292.546875 219.746094 C 292.953125 214.367188 290.390625 207.773438 290.390625 207.773438 L 294.972656 206.429688 C 294.972656 206.429688 298.34375 214.902344 297.9375 219.207031 C 297.9375 219.207031 317.902344 217.820312 328.960938 222.003906 C 328.007812 207.035156 323.21875 191.773438 318.234375 180.011719 " fill-opacity="1" fill-rule="nonzero"/><path fill="#73a633" d="M 269.292969 279.398438 C 267.800781 280.488281 266.929688 286.542969 266.578125 289.625 C 274.980469 289.960938 283.425781 290.253906 291.871094 290.492188 C 294.128906 290.558594 298.503906 286.460938 303.488281 280.253906 C 295.957031 279.742188 271.007812 278.140625 269.292969 279.398438 " fill-opacity="1" fill-rule="nonzero"/><path fill="#e9ad68" d="M 250.824219 225.058594 C 244.421875 225.125 240.515625 227.007812 240.515625 227.007812 L 233.683594 238.738281 L 242.941406 240.054688 L 251.691406 225.050781 C 251.292969 225.015625 251 225.054688 250.824219 225.058594 " fill-opacity="1" fill-rule="nonzero"/><path fill="#f0bd78" d="M 268.019531 224.019531 C 269.667969 221.398438 272.582031 216.261719 272.191406 213.15625 C 271.804688 210.054688 266.996094 200.96875 264.34375 196.132812 C 256.824219 199.445312 247.945312 202.402344 237.453125 204.695312 C 237.875 206.777344 240.523438 219.890625 240.648438 223.109375 C 240.648438 223.109375 247.660156 220.285156 253.589844 220.957031 C 255.875 221.214844 261.710938 222.507812 268.019531 224.019531 " fill-opacity="1" fill-rule="nonzero"/><path fill="#f0bd78" d="M 191.851562 249.785156 C 200.695312 251.003906 208.96875 252.253906 208.96875 252.832031 C 208.96875 253.910156 195.625 272.199219 195.625 272.199219 C 195.625 272.199219 250.015625 258.011719 250.421875 257.609375 C 250.691406 257.339844 252.289062 254.601562 253.316406 252.820312 L 236.738281 251.621094 L 240.378906 245.570312 L 200.824219 239.5 C 197.636719 243.308594 193.890625 247.546875 191.851562 249.785156 " fill-opacity="1" fill-rule="nonzero"/><path fill="#e9ad68" d="M 204.757812 234.617188 L 228.910156 238.058594 C 231.003906 235.066406 235.941406 227.921875 236.46875 226.335938 C 236.796875 225.351562 236.164062 220.421875 235.425781 215.632812 C 226.972656 218.074219 212.925781 218.269531 208.882812 218.273438 C 208.199219 224.554688 207.203125 231.035156 205.871094 233.0625 C 205.585938 233.496094 205.207031 234.023438 204.757812 234.617188 " fill-opacity="1" fill-rule="nonzero"/><path fill="#f0bd78" d="M 209.734375 208.6875 C 209.609375 210.394531 209.445312 212.484375 209.238281 214.726562 C 219.363281 215.5 231.121094 213.675781 235.011719 212.996094 C 234.371094 209.039062 233.707031 205.554688 233.707031 205.554688 C 233.707031 205.554688 219.253906 207.929688 209.734375 208.6875 " fill-opacity="1" fill-rule="nonzero"/><path fill="#e9ad68" d="M 318.632812 257.535156 L 294.96875 255.828125 L 281.117188 274.558594 C 290.503906 274.875 301.652344 275.484375 306.910156 275.789062 C 310.886719 270.367188 315.027344 263.972656 318.632812 257.535156 " fill-opacity="1" fill-rule="nonzero"/><path fill="#f0bd78" d="M 108.417969 225.324219 C 103.472656 228.136719 98.285156 231.113281 93.089844 234.144531 C 94.792969 237.253906 99.738281 246.046875 101.535156 246.644531 C 103.503906 247.300781 136.308594 246.808594 137.996094 246.78125 L 146.027344 239.957031 C 140.066406 238.554688 135.808594 235.085938 135.539062 230.789062 C 135.511719 230.351562 135.527344 229.917969 135.582031 229.492188 L 108.417969 225.324219 " fill-opacity="1" fill-rule="nonzero"/><path fill="#f0bd78" d="M 237.617188 288.285156 C 245.789062 288.714844 254.046875 289.105469 262.351562 289.453125 C 262.703125 285.578125 263.78125 275.832031 265.722656 274.757812 C 266.472656 274.339844 270.976562 274.296875 276.847656 274.4375 L 291.703125 255.589844 L 259.976562 253.300781 C 256.789062 258.460938 242.191406 282 237.617188 288.285156 " fill-opacity="1" fill-rule="nonzero"/><path fill="#73a633" d="M 153.773438 240.570312 C 152.582031 240.648438 151.414062 240.644531 150.277344 240.574219 L 132 256.464844 C 132 256.464844 160.039062 258.480469 160.039062 259.691406 C 160.039062 260.097656 158.980469 263.003906 157.574219 266.695312 L 188.71875 273.289062 C 194.683594 265.816406 202.253906 255.9375 201.691406 255.65625 C 200.613281 255.121094 174.328125 251.488281 174.328125 251.488281 L 177.15625 247.855469 C 177.15625 247.855469 182.035156 248.460938 188.046875 249.265625 C 190.15625 246.867188 193.839844 242.65625 196.988281 238.914062 L 168.363281 234.519531 C 165.453125 237.792969 160.0625 240.183594 153.773438 240.570312 " fill-opacity="1" fill-rule="nonzero"/><path fill="#e9ad68" d="M 137.667969 225.066406 C 140.535156 221.699219 146.007812 219.222656 152.417969 218.824219 C 153.953125 218.730469 155.445312 218.761719 156.878906 218.898438 L 167.863281 208.972656 C 159.6875 208.515625 151.019531 207.769531 141.839844 206.699219 C 141.839844 206.699219 130.074219 213.085938 114.65625 221.789062 L 137.667969 225.066406 " fill-opacity="1" fill-rule="nonzero"/><path fill="#f0bd78" d="M 65.949219 257.675781 C 69.453125 256.0625 95.738281 248.394531 95.738281 248.394531 C 95.738281 248.394531 90.941406 241.441406 88.601562 236.769531 C 63.980469 251.242188 40.601562 266.089844 43.03125 268.972656 C 43.464844 269.484375 46.679688 270.261719 52.253906 271.21875 C 55.652344 267.355469 63.257812 258.914062 65.949219 257.675781 " fill-opacity="1" fill-rule="nonzero"/><path fill="#f0bd78" d="M 160.644531 219.558594 C 166.351562 221.03125 170.394531 224.425781 170.652344 228.609375 C 170.675781 228.996094 170.667969 229.378906 170.628906 229.757812 L 200.9375 234.074219 C 201.5625 233.273438 202.054688 232.601562 202.367188 232.121094 C 204.148438 229.347656 205.496094 215.882812 206.085938 208.953125 C 195.597656 209.636719 184.003906 209.75 171.1875 209.144531 L 160.644531 219.558594 " fill-opacity="1" fill-rule="nonzero"/><path fill="#f0bd78" d="M 255.339844 225.527344 L 243.882812 247.316406 L 278.085938 249.625 C 279.75 246.675781 283.421875 240.09375 286.652344 233.761719 C 283.308594 232.824219 264.847656 227.6875 255.339844 225.527344 " fill-opacity="1" fill-rule="nonzero"/><path fill="#f0bd78" d="M 297.398438 222.4375 C 297.398438 222.4375 290.101562 240.976562 283.929688 250.042969 L 321.230469 252.707031 C 325.683594 244.066406 328.859375 235.773438 329.078125 230.101562 C 329.136719 228.492188 329.144531 226.867188 329.105469 225.234375 C 325.648438 224.175781 312.800781 220.714844 297.398438 222.4375 " fill-opacity="1" fill-rule="nonzero"/><path fill="#f0bd78" d="M 248.738281 262.246094 C 248.738281 262.246094 192.792969 276.910156 191.582031 278.523438 C 190.816406 279.542969 188.816406 282.859375 187.445312 285.171875 C 201.730469 286.195312 216.582031 287.144531 231.757812 287.972656 L 248.738281 262.246094 " fill-opacity="1" fill-rule="nonzero"/><path fill="#f0bd78" d="M 55.789062 271.800781 C 66 273.417969 81.875 275.453125 101.757812 277.589844 L 135.144531 249.207031 C 129.429688 249.234375 101.890625 249.390625 100.320312 249.875 C 98.570312 250.410156 68.105469 259.421875 65.8125 261.308594 C 64.132812 262.6875 58.613281 268.691406 55.789062 271.800781 " fill-opacity="1" fill-rule="nonzero"/><path fill="#f0bd78" d="M 152.636719 223.011719 C 146.671875 223.417969 142.042969 226.746094 142.296875 230.4375 C 142.550781 234.132812 147.59375 236.796875 153.558594 236.386719 C 159.519531 235.976562 164.152344 232.652344 163.894531 228.957031 C 163.640625 225.265625 158.597656 222.601562 152.636719 223.011719 " fill-opacity="1" fill-rule="nonzero"/><path fill="#f0bd78" d="M 153.566406 261.308594 C 152.488281 260.769531 129.84375 258.886719 129.84375 258.886719 L 106.761719 278.121094 C 118.554688 279.355469 131.621094 280.617188 145.660156 281.847656 C 148.027344 276.492188 154.449219 261.746094 153.566406 261.308594 " fill-opacity="1" fill-rule="nonzero"/><path fill="#e9ad68" d="M 185.816406 276.910156 L 156.527344 269.414062 C 154.683594 274.183594 152.578125 279.492188 151.4375 282.347656 C 160.476562 283.117188 169.882812 283.875 179.578125 284.597656 C 181.050781 282.792969 183.316406 280.011719 185.816406 276.910156 " fill-opacity="1" fill-rule="nonzero"/><path fill="#2f8ac2" d="M 76.128906 254.273438 C 73.605469 251.6875 71.648438 248.984375 70.675781 247.550781 C 66.574219 250.085938 62.71875 252.53125 59.261719 254.8125 C 60.191406 255.910156 61.691406 257.519531 63.757812 259.238281 C 64.640625 258.484375 65.398438 257.929688 65.949219 257.675781 C 67.195312 257.101562 71.324219 255.761719 76.128906 254.273438 " fill-opacity="1" fill-rule="nonzero"/><path fill="#2f8ac2" d="M 118.339844 263.492188 C 105.640625 262.21875 88.949219 261.898438 84.011719 259.960938 C 82.109375 259.214844 80.273438 257.992188 78.59375 256.574219 C 72.789062 258.453125 67.699219 260.214844 66.15625 261.082031 C 69.585938 263.511719 74.105469 265.878906 79.699219 267.089844 C 88.96875 269.097656 101.585938 269.292969 110.742188 269.953125 L 118.339844 263.492188 " fill-opacity="1" fill-rule="nonzero"/><path fill="#2f8ac2" d="M 140.820312 281.417969 C 139.871094 277.726562 137.421875 270.085938 132.808594 266.6875 C 131.25 265.539062 127.875 264.730469 123.570312 264.113281 L 115.964844 270.449219 C 118.429688 270.765625 120.351562 271.1875 121.484375 271.796875 C 124.585938 273.464844 124.832031 277.15625 124.511719 279.902344 C 129.769531 280.410156 135.210938 280.917969 140.820312 281.417969 " fill-opacity="1" fill-rule="nonzero"/><path fill="#2f8ac2" d="M 225.96875 206.738281 C 223.394531 207.113281 220.425781 207.523438 217.460938 207.882812 C 218.589844 210.070312 219.152344 212.347656 219.210938 214.789062 C 221.828125 214.660156 224.351562 214.4375 226.621094 214.183594 C 226.664062 210.871094 226.261719 208.207031 225.96875 206.738281 " fill-opacity="1" fill-rule="nonzero"/><path fill="#2f8ac2" d="M 221.199219 236.960938 C 221.660156 233.714844 222.726562 230.296875 224.335938 226.203125 C 225.550781 223.117188 226.171875 220.074219 226.445312 217.3125 C 223.945312 217.613281 221.398438 217.820312 219.023438 217.960938 C 218.488281 221.898438 216.855469 226.269531 214.363281 231.3125 C 213.617188 232.820312 213.046875 234.285156 212.621094 235.738281 L 221.199219 236.960938 " fill-opacity="1" fill-rule="nonzero"/><path fill="#2f8ac2" d="M 223.933594 253.234375 C 222.257812 249.214844 221.320312 245.84375 221.035156 242.601562 L 211.671875 241.164062 C 211.257812 247.8125 213.398438 254.601562 215.847656 263.457031 C 216.152344 264.570312 216.347656 265.667969 216.449219 266.746094 C 220.101562 265.785156 223.914062 264.78125 227.613281 263.804688 C 226.625 260.105469 225.328125 256.585938 223.933594 253.234375 " fill-opacity="1" fill-rule="nonzero"/><path fill="#2f8ac2" d="M 208.859375 286.617188 C 215.25 287.023438 221.71875 287.414062 228.257812 287.777344 C 229.953125 280.558594 229.734375 273.855469 228.503906 267.636719 C 224.589844 268.691406 220.445312 269.820312 216.402344 270.9375 C 215.5625 278.191406 211.074219 284.097656 208.859375 286.617188 " fill-opacity="1" fill-rule="nonzero"/><path fill="#f4f4f4" d="M 303.601562 155.210938 C 303.605469 155.210938 303.605469 155.210938 303.605469 155.210938 C 303.605469 155.210938 303.601562 155.210938 303.601562 155.210938 M 303.605469 155.203125 C 303.609375 155.203125 303.609375 155.203125 303.609375 155.203125 C 303.609375 155.203125 303.609375 155.203125 303.605469 155.203125 M 303.613281 155.199219 C 303.613281 155.195312 303.613281 155.195312 303.613281 155.195312 C 303.613281 155.195312 303.613281 155.195312 303.613281 155.199219 M 303.625 155.183594 C 303.628906 155.179688 303.628906 155.175781 303.632812 155.175781 C 303.628906 155.175781 303.628906 155.179688 303.625 155.183594 M 303.660156 155.140625 L 303.660156 155.140625 M 303.671875 155.128906 C 303.671875 155.128906 303.671875 155.125 303.671875 155.125 C 303.671875 155.125 303.671875 155.125 303.671875 155.128906 M 303.679688 155.117188 C 303.679688 155.117188 303.683594 155.113281 303.6875 155.109375 C 303.683594 155.113281 303.679688 155.117188 303.679688 155.117188 M 303.695312 155.101562 C 303.695312 155.101562 303.695312 155.097656 303.695312 155.097656 C 303.695312 155.097656 303.695312 155.101562 303.695312 155.101562 M 303.699219 155.09375 C 303.699219 155.09375 303.699219 155.09375 303.703125 155.09375 C 303.699219 155.09375 303.699219 155.09375 303.699219 155.09375 M 303.707031 155.085938 C 303.707031 155.085938 303.707031 155.085938 303.707031 155.082031 C 303.707031 155.085938 303.707031 155.085938 303.707031 155.085938 M 303.710938 155.078125 L 303.710938 155.078125 M 303.71875 155.074219 C 303.71875 155.070312 303.71875 155.070312 303.71875 155.070312 C 303.71875 155.070312 303.71875 155.070312 303.71875 155.074219 M 303.722656 155.066406 L 303.722656 155.0625 L 303.722656 155.066406 M 303.730469 155.058594 C 303.730469 155.054688 303.734375 155.054688 303.734375 155.050781 C 303.734375 155.054688 303.730469 155.054688 303.730469 155.058594 " fill-opacity="1" fill-rule="nonzero"/><path fill="#f3f3f3" d="M 331.589844 236.152344 C 330.609375 235.582031 329.566406 235.011719 328.46875 234.449219 C 328.816406 232.878906 329.027344 231.417969 329.078125 230.101562 C 329.136719 228.492188 329.144531 226.867188 329.105469 225.234375 C 326.316406 224.382812 317.417969 221.964844 305.996094 221.964844 C 303.257812 221.964844 300.378906 222.101562 297.398438 222.4375 C 297.398438 222.4375 297.34375 222.582031 297.234375 222.851562 C 295.570312 222.363281 293.882812 221.882812 292.1875 221.40625 C 292.390625 220.738281 292.515625 220.175781 292.546875 219.746094 C 292.953125 214.367188 290.390625 207.773438 290.390625 207.773438 L 294.972656 206.429688 C 294.972656 206.429688 298.34375 214.902344 297.9375 219.207031 C 297.9375 219.207031 301.109375 218.988281 305.625 218.988281 C 312.4375 218.988281 322.3125 219.488281 328.960938 222.003906 C 328.007812 207.035156 323.21875 191.773438 318.234375 180.011719 L 302.613281 191.105469 C 303.664062 193.828125 303.65625 194.066406 303.617188 194.066406 C 303.609375 194.066406 303.601562 194.054688 303.601562 194.054688 L 299.554688 195.941406 C 296.882812 188.328125 293.539062 182.464844 291.382812 178.460938 C 285.738281 183.921875 277.925781 189.761719 267.078125 194.886719 C 270.179688 200.132812 276.101562 210.585938 276.101562 213.960938 C 276.101562 214.867188 275.910156 215.941406 275.605469 217.085938 C 274.347656 216.777344 273.085938 216.472656 271.832031 216.171875 C 272.148438 215.074219 272.300781 214.035156 272.191406 213.15625 C 271.804688 210.054688 266.996094 200.96875 264.34375 196.132812 C 256.824219 199.445312 247.945312 202.402344 237.453125 204.695312 C 237.578125 205.316406 237.902344 206.921875 238.300781 208.957031 C 236.882812 208.679688 235.507812 208.414062 234.183594 208.160156 C 233.902344 206.585938 233.707031 205.554688 233.707031 205.554688 C 233.707031 205.554688 230.59375 206.066406 226.308594 206.691406 C 219.042969 205.367188 214.566406 204.644531 214.566406 204.644531 C 285.265625 197.5 295.773438 164.785156 303.601562 155.210938 C 303.601562 155.210938 303.605469 155.210938 303.605469 155.210938 C 303.605469 155.207031 303.605469 155.207031 303.605469 155.203125 C 303.609375 155.203125 303.609375 155.203125 303.609375 155.203125 C 303.613281 155.199219 303.613281 155.199219 303.613281 155.199219 C 303.613281 155.195312 303.613281 155.195312 303.613281 155.195312 C 303.621094 155.191406 303.621094 155.1875 303.625 155.183594 C 303.628906 155.179688 303.628906 155.175781 303.632812 155.175781 C 303.640625 155.167969 303.644531 155.160156 303.648438 155.15625 C 303.652344 155.152344 303.652344 155.148438 303.65625 155.148438 C 303.65625 155.144531 303.65625 155.144531 303.660156 155.140625 C 303.664062 155.136719 303.667969 155.132812 303.671875 155.128906 C 303.671875 155.125 303.671875 155.125 303.671875 155.125 C 303.675781 155.125 303.675781 155.121094 303.679688 155.117188 C 303.679688 155.117188 303.683594 155.113281 303.6875 155.109375 C 303.6875 155.109375 303.691406 155.101562 303.695312 155.101562 C 303.695312 155.101562 303.695312 155.097656 303.695312 155.097656 C 303.695312 155.097656 303.695312 155.097656 303.699219 155.09375 C 303.699219 155.09375 303.699219 155.09375 303.703125 155.09375 C 303.703125 155.089844 303.703125 155.089844 303.707031 155.085938 C 303.707031 155.085938 303.707031 155.085938 303.707031 155.082031 C 303.707031 155.082031 303.710938 155.082031 303.710938 155.078125 C 303.710938 155.078125 303.714844 155.074219 303.71875 155.074219 C 303.71875 155.070312 303.71875 155.070312 303.71875 155.070312 C 303.722656 155.066406 303.722656 155.066406 303.722656 155.066406 L 303.722656 155.0625 C 303.726562 155.0625 303.726562 155.0625 303.730469 155.058594 C 303.730469 155.054688 303.734375 155.054688 303.734375 155.050781 C 304.453125 154.195312 305.113281 153.25 306.015625 153.25 C 306.667969 153.25 307.4375 153.738281 308.445312 155.097656 C 324.082031 176.199219 332.75 209.535156 332.75 227.132812 C 332.75 230.023438 332.519531 232.488281 332.042969 234.40625 C 331.898438 234.992188 331.746094 235.574219 331.589844 236.152344 M 306.058594 158.949219 C 306.046875 158.949219 306.035156 158.949219 306.027344 158.953125 C 305.128906 159.042969 302.777344 166.066406 294.863281 174.855469 C 297.386719 178.777344 300.042969 184.554688 301.847656 188.945312 L 317.007812 177.191406 C 312.109375 166.230469 307.304688 158.949219 306.058594 158.949219 " fill-opacity="1" fill-rule="nonzero"/><path fill="#dea664" d="M 301.847656 188.945312 C 300.042969 184.554688 297.386719 178.777344 294.863281 174.855469 C 302.777344 166.066406 305.128906 159.042969 306.027344 158.953125 C 306.035156 158.949219 306.046875 158.949219 306.058594 158.949219 C 307.304688 158.949219 312.109375 166.230469 317.007812 177.191406 L 301.847656 188.945312 " fill-opacity="1" fill-rule="nonzero"/><path fill="#6e9f32" d="M 328.960938 222.003906 C 322.3125 219.488281 312.4375 218.988281 305.625 218.988281 C 301.109375 218.988281 297.9375 219.207031 297.9375 219.207031 C 298.34375 214.902344 294.972656 206.429688 294.972656 206.429688 L 290.390625 207.773438 C 290.390625 207.773438 292.953125 214.367188 292.546875 219.746094 C 292.515625 220.175781 292.390625 220.738281 292.1875 221.40625 C 286.75 219.890625 281.167969 218.441406 275.605469 217.085938 C 275.910156 215.941406 276.101562 214.867188 276.101562 213.960938 C 276.101562 210.585938 270.179688 200.132812 267.078125 194.886719 C 277.925781 189.761719 285.738281 183.921875 291.382812 178.460938 C 293.539062 182.464844 296.882812 188.328125 299.554688 195.941406 L 303.601562 194.054688 C 303.601562 194.054688 303.609375 194.066406 303.617188 194.066406 C 303.65625 194.066406 303.664062 193.828125 302.613281 191.105469 L 318.234375 180.011719 C 323.21875 191.773438 328.007812 207.035156 328.960938 222.003906 " fill-opacity="1" fill-rule="nonzero"/><path fill="#e5b573" d="M 271.832031 216.171875 C 259.765625 213.300781 248 210.847656 238.300781 208.957031 C 237.902344 206.921875 237.578125 205.316406 237.453125 204.695312 C 247.945312 202.402344 256.824219 199.445312 264.34375 196.132812 C 266.996094 200.96875 271.804688 210.054688 272.191406 213.15625 C 272.300781 214.035156 272.148438 215.074219 271.832031 216.171875 " fill-opacity="1" fill-rule="nonzero"/><path fill="#e5b573" d="M 234.183594 208.160156 C 231.300781 207.609375 228.660156 207.121094 226.308594 206.691406 C 230.59375 206.066406 233.707031 205.554688 233.707031 205.554688 C 233.707031 205.554688 233.902344 206.585938 234.183594 208.160156 " fill-opacity="1" fill-rule="nonzero"/><path fill="#e5b573" d="M 328.46875 234.449219 C 320.445312 230.328125 309.355469 226.410156 297.234375 222.851562 C 297.34375 222.582031 297.398438 222.4375 297.398438 222.4375 C 300.378906 222.101562 303.257812 221.964844 305.996094 221.964844 C 317.417969 221.964844 326.316406 224.382812 329.105469 225.234375 C 329.144531 226.867188 329.136719 228.492188 329.078125 230.101562 C 329.027344 231.417969 328.816406 232.878906 328.46875 234.449219 " fill-opacity="1" fill-rule="nonzero"/><path fill="#ffb002" d="M 232.234375 140.605469 C 232.234375 140.605469 225.953125 139.699219 226.488281 137.394531 C 227.019531 135.085938 237.507812 131.835938 239.523438 133.648438 C 241.539062 135.460938 238.597656 138.832031 238.597656 138.832031 L 236.679688 138.929688 C 236.679688 138.929688 238.773438 134.554688 237.429688 134.515625 C 236.085938 134.476562 228.582031 136.527344 229.171875 137.472656 C 229.765625 138.417969 234.132812 139.425781 234.132812 139.425781 L 232.234375 140.605469 " fill-opacity="1" fill-rule="nonzero"/><path fill="#ef9500" d="M 226.976562 136.632812 C 226.71875 136.890625 226.542969 137.148438 226.488281 137.394531 C 226.171875 138.757812 228.246094 139.632812 229.988281 140.121094 L 230.40625 139.5625 C 230.40625 139.5625 225.726562 138.527344 226.976562 136.632812 " fill-opacity="1" fill-rule="nonzero"/><path fill="#ef9500" d="M 238.695312 137.332031 C 238.695312 137.332031 239.339844 134.996094 238.597656 133.90625 C 237.859375 132.816406 229.546875 135.570312 228.980469 136.332031 C 228.414062 137.09375 229.453125 137.753906 229.453125 137.753906 C 229.328125 137.660156 229.230469 137.566406 229.171875 137.472656 C 228.582031 136.527344 236.085938 134.476562 237.429688 134.515625 C 238.28125 134.539062 237.753906 136.300781 237.253906 137.59375 L 238.695312 137.332031 " fill-opacity="1" fill-rule="nonzero"/><path fill="#ef9500" d="M 227.941406 140.566406 C 227.941406 140.566406 222.941406 147.585938 223.164062 151.796875 C 223.429688 156.792969 225.96875 166.523438 236.605469 173.363281 C 248.46875 180.988281 261.910156 180.199219 267.972656 177.042969 C 273.929688 173.941406 277.195312 164.421875 277.195312 164.421875 L 227.941406 140.566406 " fill-opacity="1" fill-rule="nonzero"/><path fill="#ffb002" d="M 276.886719 165.332031 C 273.050781 173.902344 258.667969 175.828125 244.757812 169.628906 C 230.847656 163.433594 222.683594 151.460938 226.519531 142.890625 C 230.355469 134.320312 244.738281 132.394531 258.648438 138.59375 C 272.558594 144.789062 280.722656 156.761719 276.886719 165.332031 " fill-opacity="1" fill-rule="nonzero"/><path fill="#d57300" d="M 273.8125 163.960938 C 270.445312 171.484375 257.359375 171.683594 246.359375 167.050781 C 234.5 162.054688 226.855469 150.746094 229.597656 144.261719 C 232.804688 136.667969 245.589844 135.046875 257.800781 140.488281 C 270.011719 145.929688 277.179688 156.4375 273.8125 163.960938 " fill-opacity="1" fill-rule="nonzero"/><path fill="#333333" d="M 257.273438 142.066406 C 245.210938 136.691406 232.589844 138.210938 229.195312 145.574219 C 227.859375 152.179688 235.261719 162.375 246.359375 167.050781 C 257.359375 171.683594 270.445312 171.484375 273.8125 163.960938 C 273.824219 163.933594 273.832031 163.90625 273.84375 163.878906 C 275.597656 156.535156 268.609375 147.117188 257.273438 142.066406 " fill-opacity="1" fill-rule="nonzero"/><path fill="#73a633" d="M 240.1875 144.507812 C 240.203125 144.53125 240.234375 144.570312 240.285156 144.621094 L 240.351562 144.691406 L 240.425781 144.78125 C 240.53125 144.898438 240.609375 144.988281 240.660156 145.058594 L 240.832031 145.28125 L 241.101562 145.613281 C 241.164062 145.683594 241.308594 145.835938 241.527344 146.070312 C 241.664062 146.210938 241.75 146.304688 241.785156 146.347656 C 241.867188 146.433594 241.839844 146.492188 241.703125 146.523438 L 241.550781 146.550781 L 240.878906 146.683594 L 240.726562 146.710938 L 240.582031 146.742188 C 240.480469 146.757812 240.402344 146.734375 240.339844 146.667969 C 240.265625 146.605469 240.199219 146.539062 240.148438 146.46875 L 240.03125 146.3125 L 239.90625 146.148438 C 239.863281 146.097656 239.816406 146.035156 239.761719 145.972656 L 239.703125 145.902344 L 239.652344 145.835938 L 239.582031 145.765625 C 239.554688 145.730469 239.527344 145.703125 239.507812 145.675781 L 239.355469 145.515625 L 239.078125 145.179688 C 238.917969 144.996094 238.828125 144.894531 238.808594 144.875 C 238.746094 144.792969 238.667969 144.703125 238.582031 144.605469 L 238.457031 144.472656 L 238.335938 144.335938 L 238.253906 144.25 L 237.976562 143.9375 L 237.773438 143.726562 C 237.722656 143.65625 237.640625 143.5625 237.53125 143.4375 C 237.429688 143.324219 237.347656 143.230469 237.292969 143.15625 C 237.238281 143.085938 237.1875 143.003906 237.140625 142.917969 C 237.105469 142.859375 237.140625 142.820312 237.242188 142.804688 L 237.394531 142.773438 L 237.554688 142.746094 L 237.730469 142.710938 L 237.890625 142.679688 L 238.058594 142.636719 C 238.121094 142.617188 238.179688 142.609375 238.238281 142.609375 L 238.359375 142.597656 L 238.460938 142.578125 C 238.566406 142.5625 238.675781 142.582031 238.777344 142.636719 L 238.882812 142.703125 L 238.992188 142.757812 L 239.273438 142.890625 C 239.363281 142.9375 239.457031 142.976562 239.554688 143.015625 C 239.804688 143.121094 240.039062 143.230469 240.25 143.347656 C 240.421875 143.433594 240.5625 143.496094 240.671875 143.539062 C 240.953125 143.632812 241.355469 143.792969 241.882812 144.015625 L 241.96875 144.050781 L 242.070312 144.085938 C 242.082031 144.09375 242.144531 144.113281 242.257812 144.144531 L 242.25 144.085938 L 242.234375 144.054688 L 242.214844 144.035156 L 242.203125 144.011719 L 241.742188 143.527344 L 241.609375 143.378906 C 241.523438 143.289062 241.4375 143.191406 241.351562 143.085938 L 241.1875 142.914062 L 241.019531 142.75 L 240.953125 142.679688 C 240.921875 142.648438 240.898438 142.621094 240.875 142.589844 L 240.730469 142.4375 L 240.699219 142.394531 L 240.664062 142.359375 C 240.601562 142.292969 240.617188 142.25 240.707031 142.230469 C 240.765625 142.214844 240.902344 142.191406 241.125 142.15625 L 241.246094 142.136719 L 241.328125 142.128906 L 241.394531 142.117188 L 241.613281 142.097656 L 241.824219 142.070312 C 241.9375 142.058594 242.042969 142.082031 242.136719 142.132812 C 242.1875 142.15625 242.246094 142.195312 242.308594 142.242188 L 242.433594 142.375 C 242.574219 142.523438 242.667969 142.617188 242.71875 142.660156 L 243.144531 143.0625 C 243.214844 143.117188 243.292969 143.1875 243.375 143.269531 L 243.59375 143.488281 L 243.84375 143.726562 C 243.945312 143.8125 244.019531 143.894531 244.078125 143.96875 C 244.199219 144.109375 244.3125 144.21875 244.410156 144.292969 L 244.460938 144.347656 L 244.636719 144.550781 L 244.773438 144.71875 L 244.929688 144.890625 L 245.070312 145.039062 L 245.203125 145.1875 L 245.253906 145.242188 L 245.300781 145.300781 L 245.382812 145.410156 L 245.425781 145.480469 L 245.472656 145.539062 L 245.546875 145.664062 C 245.589844 145.714844 245.578125 145.761719 245.515625 145.796875 C 245.351562 145.878906 245.160156 145.953125 244.9375 146.015625 L 244.738281 146.046875 L 244.339844 146.097656 L 244.132812 146.117188 C 244.035156 146.125 243.945312 146.105469 243.859375 146.058594 L 243.550781 145.898438 L 242.949219 145.621094 L 242.851562 145.574219 L 242.773438 145.527344 L 242.691406 145.488281 L 242.59375 145.441406 L 242.269531 145.261719 L 242.101562 145.179688 L 241.949219 145.109375 L 241.164062 144.777344 C 241.066406 144.730469 240.917969 144.667969 240.71875 144.585938 L 240.492188 144.5 L 240.269531 144.398438 C 240.214844 144.375 240.160156 144.363281 240.097656 144.359375 C 240.09375 144.375 240.097656 144.398438 240.121094 144.4375 L 240.1875 144.507812 " fill-opacity="1" fill-rule="nonzero"/><path fill="#73a633" d="M 263.585938 148.234375 L 263.621094 148.265625 C 263.667969 148.316406 263.660156 148.355469 263.589844 148.386719 C 263.5625 148.398438 263.515625 148.410156 263.449219 148.429688 C 263.371094 148.457031 263.238281 148.5 263.046875 148.558594 L 262.628906 148.671875 L 262.410156 148.742188 L 262.1875 148.820312 C 262.101562 148.855469 262.097656 148.90625 262.171875 148.96875 C 262.242188 149.039062 262.320312 149.109375 262.410156 149.179688 L 262.507812 149.265625 C 262.539062 149.289062 262.578125 149.320312 262.632812 149.351562 C 262.6875 149.394531 262.753906 149.40625 262.832031 149.390625 C 262.867188 149.386719 262.894531 149.378906 262.914062 149.371094 L 263.433594 149.238281 C 263.640625 149.183594 263.78125 149.152344 263.847656 149.140625 C 264.101562 149.082031 264.351562 149.035156 264.59375 148.988281 C 264.710938 148.964844 264.816406 148.988281 264.910156 149.054688 L 265.445312 149.460938 C 265.53125 149.519531 265.582031 149.558594 265.597656 149.574219 C 265.65625 149.625 265.652344 149.664062 265.582031 149.695312 L 265.464844 149.738281 L 265.363281 149.785156 C 265.269531 149.824219 265.191406 149.847656 265.125 149.859375 L 265.078125 149.871094 L 265.035156 149.875 L 264.953125 149.898438 C 264.800781 149.933594 264.636719 149.980469 264.464844 150.042969 L 264.222656 150.125 L 264 150.210938 L 263.785156 150.285156 C 263.726562 150.320312 263.71875 150.351562 263.753906 150.386719 C 263.871094 150.503906 263.941406 150.566406 263.953125 150.578125 C 263.964844 150.597656 264.011719 150.640625 264.085938 150.703125 C 264.136719 150.75 264.21875 150.765625 264.332031 150.742188 C 264.519531 150.707031 264.652344 150.667969 264.726562 150.628906 C 264.828125 150.585938 265.015625 150.527344 265.296875 150.457031 L 265.71875 150.347656 L 265.929688 150.300781 L 266.140625 150.246094 C 266.203125 150.230469 266.242188 150.222656 266.257812 150.222656 C 266.347656 150.214844 266.417969 150.234375 266.472656 150.273438 L 266.550781 150.34375 L 266.75 150.492188 L 266.9375 150.648438 C 266.96875 150.667969 267.035156 150.730469 267.144531 150.839844 L 267.21875 150.902344 C 267.261719 150.957031 267.25 150.996094 267.1875 151.023438 C 267.078125 151.066406 266.933594 151.117188 266.753906 151.167969 L 266.589844 151.207031 L 266.417969 151.257812 L 266.132812 151.355469 C 266.007812 151.398438 265.804688 151.457031 265.523438 151.53125 C 265.09375 151.617188 264.742188 151.726562 264.460938 151.855469 C 264.285156 151.933594 264.125 151.984375 263.976562 152.007812 C 263.933594 152.011719 263.886719 152.019531 263.847656 152.039062 L 263.722656 152.078125 C 263.605469 152.113281 263.507812 152.097656 263.4375 152.027344 C 263.355469 151.953125 263.296875 151.878906 263.25 151.8125 L 262.726562 151.355469 C 262.492188 151.140625 262.300781 150.957031 262.152344 150.800781 C 261.988281 150.644531 261.832031 150.484375 261.675781 150.324219 L 261.035156 149.671875 L 260.738281 149.359375 C 260.578125 149.203125 260.46875 149.105469 260.417969 149.058594 C 260.355469 148.988281 260.285156 148.917969 260.203125 148.839844 L 260.011719 148.632812 L 259.875 148.480469 C 259.792969 148.394531 259.816406 148.332031 259.949219 148.296875 L 260.089844 148.261719 C 260.132812 148.242188 260.234375 148.214844 260.394531 148.171875 L 260.554688 148.132812 L 260.71875 148.097656 L 260.980469 148.019531 C 261.027344 148 261.078125 147.984375 261.132812 147.972656 L 261.261719 147.9375 C 261.308594 147.921875 261.449219 147.890625 261.683594 147.835938 C 262.011719 147.78125 262.230469 147.738281 262.34375 147.703125 C 262.378906 147.691406 262.472656 147.667969 262.628906 147.636719 C 262.726562 147.613281 262.816406 147.625 262.894531 147.675781 C 262.949219 147.707031 262.984375 147.730469 263.007812 147.75 L 263.167969 147.890625 L 263.230469 147.957031 L 263.585938 148.234375 " fill-opacity="1" fill-rule="nonzero"/><path fill="#73a633" d="M 260.363281 164.308594 L 260.410156 164.296875 C 260.445312 164.292969 260.464844 164.289062 260.46875 164.285156 C 260.765625 164.210938 260.953125 164.160156 261.027344 164.136719 L 261.210938 164.089844 L 261.402344 164.046875 C 261.496094 164.03125 261.589844 164.019531 261.691406 164.015625 C 261.816406 164.007812 261.914062 164.035156 261.984375 164.09375 L 262.253906 164.371094 L 262.496094 164.644531 L 262.507812 164.667969 L 262.539062 164.695312 L 262.570312 164.730469 C 262.597656 164.792969 262.5625 164.832031 262.460938 164.855469 C 262.277344 164.882812 262.058594 164.929688 261.800781 164.988281 C 261.613281 165.035156 261.46875 165.082031 261.363281 165.128906 L 261.234375 165.160156 C 261.195312 165.171875 261.15625 165.183594 261.117188 165.203125 C 260.976562 165.257812 260.894531 165.320312 260.867188 165.394531 C 260.839844 165.460938 260.832031 165.511719 260.847656 165.546875 C 260.875 165.632812 260.996094 165.699219 261.214844 165.75 C 261.265625 165.769531 261.335938 165.78125 261.417969 165.78125 L 261.515625 165.785156 L 261.613281 165.785156 C 261.828125 165.792969 262.097656 165.773438 262.425781 165.730469 L 262.816406 165.6875 L 263.203125 165.652344 C 263.347656 165.636719 263.496094 165.636719 263.652344 165.65625 L 263.773438 165.679688 L 263.902344 165.695312 C 264.023438 165.710938 264.105469 165.722656 264.152344 165.734375 C 264.402344 165.789062 264.660156 165.886719 264.925781 166.035156 L 265.105469 166.152344 C 265.257812 166.226562 265.394531 166.339844 265.519531 166.484375 C 265.632812 166.585938 265.714844 166.683594 265.761719 166.765625 C 265.894531 166.984375 265.925781 167.175781 265.859375 167.339844 C 265.746094 167.578125 265.554688 167.753906 265.28125 167.871094 C 265.238281 167.890625 265.179688 167.914062 265.101562 167.941406 L 265.003906 167.984375 L 264.886719 168.027344 L 264.46875 168.171875 C 264.402344 168.199219 264.324219 168.21875 264.230469 168.234375 L 264.101562 168.261719 L 263.984375 168.285156 L 263.714844 168.339844 C 263.433594 168.386719 263.101562 168.421875 262.710938 168.433594 C 262.691406 168.429688 262.660156 168.433594 262.621094 168.4375 C 262.496094 168.433594 262.402344 168.402344 262.34375 168.34375 L 262.261719 168.238281 C 262.054688 168.019531 261.902344 167.808594 261.804688 167.613281 L 261.792969 167.578125 L 261.78125 167.550781 C 261.769531 167.496094 261.8125 167.46875 261.90625 167.460938 C 261.988281 167.453125 262.070312 167.453125 262.15625 167.460938 C 262.417969 167.476562 262.703125 167.449219 263.015625 167.371094 C 263.136719 167.347656 263.261719 167.328125 263.394531 167.316406 C 263.625 167.304688 263.828125 167.238281 263.996094 167.113281 C 264.054688 167.070312 264.070312 167.023438 264.050781 166.960938 C 264.035156 166.90625 263.976562 166.863281 263.878906 166.832031 C 263.773438 166.804688 263.667969 166.789062 263.558594 166.78125 C 263.382812 166.777344 263.101562 166.789062 262.710938 166.824219 C 262.121094 166.882812 261.617188 166.878906 261.195312 166.816406 C 260.714844 166.753906 260.316406 166.636719 260 166.464844 C 259.695312 166.28125 259.484375 166.125 259.363281 166 C 259.199219 165.851562 259.078125 165.699219 259 165.539062 C 258.914062 165.386719 258.878906 165.230469 258.890625 165.058594 C 258.941406 164.824219 259.121094 164.65625 259.425781 164.554688 C 259.582031 164.511719 259.730469 164.457031 259.871094 164.398438 C 259.898438 164.390625 259.917969 164.382812 259.917969 164.378906 C 260.023438 164.371094 260.148438 164.351562 260.300781 164.316406 L 260.363281 164.308594 " fill-opacity="1" fill-rule="nonzero"/><path fill="#73a633" d="M 235.875 159.695312 L 235.792969 159.65625 L 235.765625 159.640625 L 235.738281 159.628906 L 235.585938 159.527344 L 235.4375 159.429688 C 235.339844 159.367188 235.234375 159.300781 235.121094 159.238281 C 235.035156 159.1875 234.949219 159.128906 234.859375 159.078125 C 235.566406 159.832031 236.324219 160.570312 237.136719 161.277344 L 237.289062 161.246094 L 237.523438 161.179688 L 237.765625 161.117188 C 237.847656 161.101562 237.953125 161.070312 238.074219 161.023438 L 238.375 160.917969 C 238.460938 160.875 238.488281 160.820312 238.457031 160.753906 C 238.351562 160.519531 238.191406 160.242188 237.96875 159.917969 C 237.945312 159.878906 237.902344 159.824219 237.839844 159.75 C 237.667969 159.5625 237.542969 159.375 237.457031 159.1875 L 237.320312 158.945312 L 237.316406 158.933594 L 237.300781 158.917969 L 237.285156 158.871094 C 237.359375 158.875 237.425781 158.898438 237.480469 158.941406 L 238.21875 159.335938 L 238.363281 159.417969 L 238.496094 159.492188 L 238.644531 159.578125 C 238.695312 159.609375 238.734375 159.632812 238.765625 159.652344 L 238.9375 159.761719 C 238.996094 159.808594 239.058594 159.84375 239.121094 159.867188 L 239.289062 159.964844 L 239.457031 160.058594 L 239.542969 160.113281 L 239.625 160.164062 C 239.691406 160.203125 239.742188 160.230469 239.777344 160.253906 C 239.832031 160.289062 239.878906 160.316406 239.921875 160.335938 L 239.992188 160.378906 L 240.078125 160.421875 C 240.171875 160.472656 240.253906 160.5 240.316406 160.507812 C 240.363281 160.511719 240.4375 160.5 240.542969 160.460938 C 240.621094 160.429688 240.710938 160.398438 240.808594 160.375 L 241.050781 160.3125 C 241.097656 160.304688 241.144531 160.292969 241.195312 160.28125 L 241.304688 160.253906 C 241.3125 160.253906 241.375 160.242188 241.492188 160.21875 C 241.746094 160.183594 241.949219 160.121094 242.097656 160.039062 C 242.183594 159.988281 242.203125 159.929688 242.152344 159.863281 C 242.125 159.835938 242.09375 159.796875 242.0625 159.753906 L 242.019531 159.695312 L 241.96875 159.632812 L 241.898438 159.519531 L 241.824219 159.398438 L 241.664062 159.191406 C 241.605469 159.105469 241.5625 159.035156 241.535156 158.980469 C 241.480469 158.890625 241.429688 158.789062 241.382812 158.671875 L 241.132812 158.179688 L 241.070312 158.058594 L 241.019531 157.9375 L 240.988281 157.871094 L 240.949219 157.804688 C 240.929688 157.753906 240.914062 157.71875 240.902344 157.699219 C 240.863281 157.597656 240.792969 157.484375 240.683594 157.363281 L 240.652344 157.324219 L 240.617188 157.285156 C 240.582031 157.246094 240.550781 157.214844 240.523438 157.183594 L 240.363281 157.003906 L 240.257812 156.878906 L 240.164062 156.753906 L 240.109375 156.683594 L 240.054688 156.617188 C 240.019531 156.570312 239.992188 156.53125 239.976562 156.503906 C 239.855469 156.359375 239.757812 156.253906 239.679688 156.183594 C 239.585938 156.097656 239.472656 156.074219 239.332031 156.121094 L 238.582031 156.332031 C 238.519531 156.355469 238.421875 156.386719 238.285156 156.429688 L 238.003906 156.535156 C 237.921875 156.5625 237.894531 156.605469 237.925781 156.667969 L 237.996094 156.761719 L 238.0625 156.863281 L 238.171875 156.984375 L 238.277344 157.121094 L 238.652344 157.648438 C 238.761719 157.796875 238.828125 157.910156 238.859375 157.992188 L 238.886719 158.046875 L 238.894531 158.066406 L 238.902344 158.082031 L 239.046875 158.367188 L 239.058594 158.386719 L 239.066406 158.402344 L 239.046875 158.449219 L 238.9375 158.414062 L 238.675781 158.28125 L 238.390625 158.136719 C 238.347656 158.113281 238.296875 158.085938 238.242188 158.058594 L 238.164062 158.023438 L 238.109375 157.996094 C 237.792969 157.832031 237.570312 157.707031 237.445312 157.625 C 237.175781 157.464844 236.878906 157.320312 236.554688 157.191406 C 236.359375 157.113281 236.234375 157.0625 236.179688 157.042969 C 236.089844 157.007812 235.996094 157 235.898438 157.023438 L 235.78125 157.046875 L 235.667969 157.078125 L 235.445312 157.121094 C 235.402344 157.128906 235.363281 157.132812 235.328125 157.144531 L 235.226562 157.167969 C 234.953125 157.238281 234.742188 157.304688 234.585938 157.363281 C 234.511719 157.378906 234.492188 157.414062 234.527344 157.464844 C 234.539062 157.503906 234.570312 157.550781 234.628906 157.605469 L 234.816406 157.878906 L 234.859375 157.957031 L 234.902344 158.023438 C 234.933594 158.082031 234.957031 158.125 234.972656 158.15625 C 234.976562 158.171875 234.988281 158.1875 235 158.214844 C 235.007812 158.230469 235.019531 158.25 235.035156 158.273438 L 235.367188 158.785156 C 235.464844 158.933594 235.585938 159.097656 235.734375 159.28125 L 235.804688 159.375 L 235.871094 159.460938 C 235.933594 159.5625 235.972656 159.625 235.984375 159.648438 L 235.988281 159.667969 L 235.996094 159.6875 L 235.988281 159.730469 C 235.941406 159.71875 235.90625 159.707031 235.875 159.695312 " fill-opacity="1" fill-rule="nonzero"/><path fill="#73a633" d="M 236.605469 142.066406 C 236.605469 142.066406 241.085938 141.542969 240.824219 141.277344 C 240.5625 141.015625 237.660156 139.964844 237.398438 140.226562 C 237.132812 140.488281 236.34375 142.066406 236.605469 142.066406 " fill-opacity="1" fill-rule="nonzero"/><path fill="#486124" d="M 254.789062 143.21875 C 254.753906 143.507812 254.320312 143.695312 253.8125 143.640625 C 253.304688 143.585938 252.921875 143.308594 252.953125 143.019531 C 252.984375 142.730469 253.421875 142.539062 253.929688 142.597656 C 254.433594 142.652344 254.820312 142.929688 254.789062 143.21875 " fill-opacity="1" fill-rule="nonzero"/><path fill="#486124" d="M 231.855469 150.320312 C 231.824219 150.609375 231.390625 150.796875 230.882812 150.742188 C 230.375 150.6875 229.992188 150.40625 230.023438 150.117188 C 230.054688 149.832031 230.492188 149.640625 231 149.695312 C 231.503906 149.753906 231.890625 150.03125 231.855469 150.320312 " fill-opacity="1" fill-rule="nonzero"/><path fill="#486124" d="M 271.128906 159.523438 C 271.097656 159.8125 270.660156 160.003906 270.152344 159.945312 C 269.648438 159.890625 269.261719 159.613281 269.296875 159.324219 C 269.328125 159.035156 269.761719 158.84375 270.269531 158.902344 C 270.777344 158.957031 271.160156 159.238281 271.128906 159.523438 " fill-opacity="1" fill-rule="nonzero"/><path fill="#486124" d="M 250.042969 166.625 C 250.011719 166.914062 249.574219 167.101562 249.066406 167.046875 C 248.5625 166.992188 248.175781 166.714844 248.210938 166.421875 C 248.242188 166.136719 248.675781 165.945312 249.183594 166.003906 C 249.691406 166.058594 250.074219 166.335938 250.042969 166.625 " fill-opacity="1" fill-rule="nonzero"/><path fill="#1a1a1a" d="M 248.46875 144.433594 C 248.46875 144.433594 246.804688 139.679688 247.148438 143.121094 C 247.414062 145.75 248.996094 153.375 248.996094 153.375 L 248.203125 153.902344 C 248.203125 153.902344 247.253906 155.421875 247.941406 156.792969 C 248.46875 157.847656 250.3125 158.109375 250.3125 158.109375 C 250.3125 158.109375 254.265625 168.628906 254.792969 168.628906 C 255.320312 168.628906 253.210938 156.53125 253.210938 156.53125 L 248.46875 144.433594 " fill-opacity="1" fill-rule="nonzero"/><path fill="#cc234b" d="M 253.765625 157.472656 C 254.542969 157.207031 255.125 156.703125 255.332031 156.011719 C 255.746094 154.628906 254.5 153.035156 252.546875 152.453125 L 252.488281 152.4375 C 251.207031 148.882812 248.550781 141.667969 248.152344 141.683594 C 247.757812 141.703125 249.160156 148.800781 249.882812 152.421875 C 249.078125 152.679688 248.472656 153.191406 248.261719 153.898438 C 247.847656 155.28125 249.09375 156.875 251.042969 157.457031 C 251.070312 157.464844 251.097656 157.472656 251.121094 157.480469 C 252.367188 160.929688 255.144531 168.496094 255.550781 168.480469 C 255.957031 168.464844 254.46875 160.996094 253.765625 157.472656 " fill-opacity="1" fill-rule="nonzero"/><path fill="#f1f1f1" d="M 255.550781 168.480469 C 255.957031 168.464844 254.46875 160.996094 253.765625 157.472656 C 254.542969 157.207031 255.125 156.703125 255.332031 156.011719 C 255.453125 155.597656 255.429688 155.164062 255.277344 154.746094 L 248.328125 155.207031 C 248.6875 156.171875 249.695312 157.054688 251.042969 157.457031 C 251.070312 157.464844 251.097656 157.472656 251.121094 157.480469 C 252.367188 160.929688 255.144531 168.496094 255.550781 168.480469 " fill-opacity="1" fill-rule="nonzero"/><path fill="#333333" d="M 250.839844 154.164062 C 250.839844 154.164062 250.050781 155.214844 251.628906 155.742188 C 253.210938 156.269531 253.476562 154.691406 253.476562 154.691406 C 253.476562 154.691406 252.992188 153.375 252.15625 153.375 C 251.367188 153.375 251.101562 153.640625 250.839844 154.164062 " fill-opacity="1" fill-rule="nonzero"/><path fill="#4d4d4d" d="M 251.578125 153.792969 L 251.53125 153.828125 C 251.511719 153.855469 251.535156 153.894531 251.558594 153.925781 C 251.78125 154.195312 252.101562 154.367188 252.433594 154.484375 C 252.527344 154.519531 252.632812 154.550781 252.734375 154.539062 C 252.835938 154.527344 252.9375 154.457031 252.960938 154.355469 C 252.984375 154.226562 252.875 154.113281 252.769531 154.035156 C 252.410156 153.769531 252.011719 153.632812 251.578125 153.792969 " fill-opacity="1" fill-rule="nonzero"/><path fill="#ffc757" d="M 230.019531 142.59375 C 230.019531 142.59375 224.746094 148.90625 235.023438 159.949219 C 245.304688 170.996094 261.644531 171.519531 266.125 169.945312 C 266.125 169.945312 256.902344 173.625 244.515625 167.578125 C 232.125 161.527344 229.492188 152.847656 228.964844 151.535156 C 228.4375 150.21875 227.382812 146.273438 230.019531 142.59375 " fill-opacity="1" fill-rule="nonzero"/><path fill="#cc234b" d="M 305.433594 265.554688 C 305.242188 265.609375 305.050781 265.644531 304.855469 265.65625 C 303.515625 265.753906 296.484375 266.195312 296.3125 265.066406 C 296.117188 263.816406 298.308594 260.925781 303.628906 262.949219 C 307.863281 264.5625 306.25 265.316406 305.433594 265.554688 " fill-opacity="1" fill-rule="nonzero"/><path fill="#af0b3a" d="M 303.628906 262.949219 C 303.386719 262.859375 303.152344 262.777344 302.921875 262.703125 C 303.945312 263.75 302.035156 265.066406 299.007812 265.066406 C 297.148438 265.066406 296.601562 264.59375 296.5 264.144531 C 296.332031 264.480469 296.273438 264.808594 296.3125 265.066406 C 296.484375 266.195312 303.515625 265.753906 304.855469 265.65625 C 305.050781 265.644531 305.242188 265.609375 305.433594 265.554688 C 306.25 265.316406 307.863281 264.5625 303.628906 262.949219 " fill-opacity="1" fill-rule="nonzero"/><path fill="#e55857" d="M 305.191406 263.632812 L 302.480469 254.28125 C 302.425781 254.078125 302.21875 253.960938 302.011719 254.011719 L 300.867188 254.296875 C 300.644531 254.351562 300.515625 254.585938 300.59375 254.804688 L 303.5625 263.269531 C 303.722656 263.722656 304.121094 264.046875 304.597656 264.105469 L 304.769531 264.128906 C 305.046875 264.164062 305.269531 263.902344 305.191406 263.632812 " fill-opacity="1" fill-rule="nonzero"/><path fill="#cc234b" d="M 279.824219 265.554688 C 279.632812 265.609375 279.441406 265.644531 279.242188 265.65625 C 277.902344 265.753906 270.875 266.195312 270.699219 265.066406 C 270.507812 263.816406 272.699219 260.925781 278.019531 262.949219 C 282.25 264.5625 280.640625 265.316406 279.824219 265.554688 " fill-opacity="1" fill-rule="nonzero"/><path fill="#af0b3a" d="M 278.019531 262.949219 C 277.777344 262.859375 277.539062 262.777344 277.3125 262.703125 C 278.335938 263.75 276.421875 265.066406 273.394531 265.066406 C 271.539062 265.066406 270.988281 264.59375 270.890625 264.144531 C 270.722656 264.480469 270.660156 264.808594 270.699219 265.066406 C 270.875 266.195312 277.902344 265.753906 279.242188 265.65625 C 279.441406 265.644531 279.632812 265.609375 279.824219 265.554688 C 280.640625 265.316406 282.25 264.5625 278.019531 262.949219 " fill-opacity="1" fill-rule="nonzero"/><path fill="#f27461" d="M 279.582031 263.632812 L 278.988281 252.933594 C 278.929688 252.734375 278.722656 252.617188 278.519531 252.667969 L 277.375 252.953125 C 277.152344 253.007812 277.023438 253.242188 277.101562 253.457031 L 277.953125 263.269531 C 278.109375 263.722656 278.511719 264.046875 278.988281 264.105469 L 279.160156 264.128906 C 279.4375 264.164062 279.660156 263.902344 279.582031 263.632812 " fill-opacity="1" fill-rule="nonzero"/><path fill="#5a2960" d="M 295.195312 190.851562 C 295.195312 190.851562 295.96875 220.152344 295.773438 223.804688 C 295.582031 227.453125 303.09375 255.3125 303.09375 255.3125 C 303.09375 255.3125 303.863281 254.832031 304.054688 255.410156 C 304.25 255.984375 305.308594 258.292969 304.25 258.675781 C 303.1875 259.058594 300.976562 260.019531 300.683594 259.347656 C 300.398438 258.675781 299.046875 256.082031 300.683594 255.792969 C 300.683594 255.792969 289.226562 228.992188 288.359375 224.859375 C 287.496094 220.730469 285.761719 210.449219 285.761719 210.449219 C 285.761719 210.449219 279.984375 225.53125 279.792969 226.300781 C 279.601562 227.070312 279.503906 255.984375 279.503906 255.984375 C 279.503906 255.984375 280.464844 255.890625 280.5625 256.5625 C 280.65625 257.234375 280.945312 259.253906 280.175781 259.445312 C 279.40625 259.636719 276.039062 260.117188 275.84375 259.445312 C 275.652344 258.773438 275.074219 256.082031 276.902344 255.984375 C 276.902344 255.984375 271.898438 226.300781 272.1875 223.417969 C 272.476562 220.535156 276.230469 191.332031 276.230469 191.332031 L 295.195312 190.851562 " fill-opacity="1" fill-rule="nonzero"/><path fill="#4a1c53" d="M 285.761719 210.449219 C 285.761719 210.449219 287.640625 204.828125 288.265625 201.226562 C 288.265625 201.226562 294.957031 201.46875 295.261719 193.421875 C 295.445312 200.652344 295.933594 220.816406 295.773438 223.804688 C 295.582031 227.453125 303.09375 255.3125 303.09375 255.3125 C 303.09375 255.3125 303.863281 254.832031 304.054688 255.410156 C 304.25 255.984375 305.308594 258.292969 304.25 258.675781 C 303.1875 259.058594 300.976562 260.019531 300.683594 259.347656 C 300.398438 258.675781 299.046875 256.082031 300.683594 255.792969 C 300.683594 255.792969 289.226562 228.992188 288.359375 224.859375 C 287.496094 220.730469 285.761719 210.449219 285.761719 210.449219 " fill-opacity="1" fill-rule="nonzero"/><path fill="#371443" d="M 288.289062 201.210938 C 288.3125 201.082031 288.4375 200.992188 288.566406 201.015625 C 288.699219 201.039062 288.785156 201.160156 288.761719 201.292969 C 288.757812 201.335938 288.066406 205.253906 285.929688 211.441406 C 285.824219 210.816406 285.761719 210.449219 285.761719 210.449219 C 285.761719 210.449219 285.753906 210.464844 285.742188 210.5 C 287.652344 204.8125 288.28125 201.253906 288.289062 201.210938 " fill-opacity="1" fill-rule="nonzero"/><path fill="#371443" d="M 301.027344 255.871094 L 301.011719 255.871094 C 300.886719 255.867188 300.785156 255.769531 300.773438 255.644531 C 300.765625 255.511719 300.871094 255.398438 301 255.390625 C 301.015625 255.390625 301.929688 255.332031 302.964844 254.835938 C 303.035156 255.109375 303.082031 255.273438 303.089844 255.304688 C 302.011719 255.8125 301.074219 255.867188 301.027344 255.871094 " fill-opacity="1" fill-rule="nonzero"/><path fill="#f07461" d="M 252.863281 176.367188 C 252.863281 176.367188 252.695312 172.792969 251.972656 172.753906 C 251.25 172.714844 251.699219 174.441406 251.230469 174.28125 C 250.761719 174.117188 249.726562 171.03125 248.847656 171.148438 C 248.097656 171.246094 249.945312 174.046875 249.722656 174.074219 C 249.503906 174.101562 247.324219 172.195312 246.851562 172.347656 C 246.378906 172.5 246.902344 173.414062 248.558594 174.40625 C 248.558594 174.40625 249.242188 174.851562 249.117188 174.914062 C 248.992188 174.976562 246.519531 173.914062 246.390625 174.285156 C 246.261719 174.664062 246.886719 174.984375 248.824219 175.757812 C 248.824219 175.757812 249.199219 175.886719 248.980469 175.917969 C 248.757812 175.945312 246.5 175.480469 246.996094 176.175781 C 247.492188 176.871094 252.320312 177.804688 252.320312 177.804688 L 252.863281 176.367188 " fill-opacity="1" fill-rule="nonzero"/><path fill="#cf1476" d="M 251.652344 177.992188 C 251.652344 177.992188 259.71875 184.605469 263.855469 183.316406 C 267.839844 182.074219 270.316406 179.707031 270.316406 179.707031 C 270.316406 179.707031 272.957031 186.238281 274.59375 191.621094 C 274.59375 191.621094 282.101562 198.921875 296.351562 190.46875 C 296.351562 190.46875 300.371094 168.730469 297.316406 160.109375 C 294.523438 152.230469 280.144531 153.230469 275.84375 154.152344 C 261.269531 157.273438 265.40625 180.480469 252.953125 175.828125 C 252.953125 175.828125 251.652344 176.355469 251.652344 177.992188 " fill-opacity="1" fill-rule="nonzero"/><path fill="#bb006b" d="M 279.082031 167.183594 C 279.089844 167.132812 279.097656 167.078125 279.105469 167.027344 C 279.105469 167.027344 279.097656 167.085938 279.082031 167.183594 " fill-opacity="1" fill-rule="nonzero"/><path fill="#bb006b" d="M 296.351562 190.46875 C 282.101562 198.921875 274.59375 191.621094 274.59375 191.621094 C 273.140625 186.851562 270.90625 181.183594 270.414062 179.953125 C 277.675781 174.515625 278.921875 168.238281 279.082031 167.183594 C 277.855469 175.90625 281.101562 188.855469 288.792969 188.34375 C 294.175781 187.984375 296.503906 184.707031 297.511719 182.738281 C 296.953125 187.21875 296.351562 190.46875 296.351562 190.46875 " fill-opacity="1" fill-rule="nonzero"/><path fill="#bb006b" d="M 279.082031 167.183594 C 279.089844 167.132812 279.097656 167.078125 279.105469 167.027344 C 279.105469 167.027344 279.097656 167.085938 279.082031 167.183594 " fill-opacity="1" fill-rule="nonzero"/><path fill="#ffb002" d="M 270.714844 180.03125 C 271.171875 179.675781 271.539062 179.261719 271.925781 178.84375 C 283.386719 175.304688 295.8125 175.757812 298.203125 175.886719 L 298.199219 175.910156 C 298.160156 176.503906 298.109375 177.09375 298.058594 177.675781 L 298.054688 177.714844 C 285.316406 177.359375 274.046875 180.152344 270.839844 181.03125 C 270.703125 180.6875 270.59375 180.40625 270.507812 180.1875 C 270.574219 180.136719 270.648438 180.085938 270.714844 180.03125 " fill-opacity="1" fill-rule="nonzero"/><path fill="#ffb002" d="M 271.847656 183.664062 C 282.347656 180.265625 293.84375 180.316406 297.78125 180.457031 L 297.773438 180.523438 C 297.742188 180.796875 297.710938 181.066406 297.683594 181.332031 C 297.679688 181.363281 297.675781 181.390625 297.671875 181.417969 C 297.640625 181.691406 297.609375 181.960938 297.578125 182.226562 C 297.574219 182.25 297.570312 182.277344 297.566406 182.304688 C 286.414062 182.144531 276.539062 184.320312 272.476562 185.363281 C 272.257812 184.769531 272.046875 184.199219 271.847656 183.664062 " fill-opacity="1" fill-rule="nonzero"/><path fill="#ef9300" d="M 270.839844 181.03125 C 270.707031 180.6875 270.59375 180.402344 270.507812 180.1875 C 270.574219 180.136719 270.648438 180.085938 270.714844 180.03125 C 271.171875 179.675781 271.539062 179.261719 271.925781 178.84375 C 274.417969 178.074219 276.953125 177.496094 279.421875 177.058594 C 279.558594 177.742188 279.714844 178.414062 279.894531 179.070312 C 275.574219 179.796875 272.332031 180.621094 270.839844 181.03125 " fill-opacity="1" fill-rule="nonzero"/><path fill="#81034f" d="M 289.425781 190.734375 C 293.171875 189.664062 296 187.96875 296.859375 187.421875 C 296.824219 187.640625 296.792969 187.851562 296.761719 188.050781 C 295.597656 188.757812 292.953125 190.226562 289.570312 191.191406 C 287.355469 191.824219 285.183594 192.140625 283.097656 192.140625 C 282.652344 192.140625 282.210938 192.125 281.777344 192.097656 C 278.992188 191.914062 276.378906 191.132812 273.996094 189.773438 C 273.917969 189.546875 273.835938 189.3125 273.753906 189.078125 C 276.199219 190.570312 278.90625 191.425781 281.796875 191.617188 C 284.226562 191.78125 286.789062 191.484375 289.425781 190.734375 " fill-opacity="1" fill-rule="nonzero"/><path fill="#81034f" d="M 278.84375 166.285156 C 279.339844 158.109375 273.609375 156.804688 273.363281 156.753906 C 273.222656 156.722656 273.136719 156.585938 273.164062 156.449219 C 273.191406 156.308594 273.328125 156.21875 273.46875 156.25 C 273.535156 156.261719 279.882812 157.683594 279.359375 166.316406 C 278.910156 173.691406 272.074219 179.078125 270.519531 180.210938 C 270.402344 179.925781 270.332031 179.75 270.320312 179.71875 C 272.007812 178.46875 278.417969 173.28125 278.84375 166.285156 " fill-opacity="1" fill-rule="nonzero"/><path fill="#ef9300" d="M 272.476562 185.363281 C 272.257812 184.769531 272.046875 184.199219 271.847656 183.664062 C 274.789062 182.714844 277.808594 182.03125 280.71875 181.546875 C 280.992188 182.230469 281.292969 182.882812 281.625 183.496094 C 277.601562 184.125 274.390625 184.871094 272.476562 185.363281 " fill-opacity="1" fill-rule="nonzero"/><path fill="#f27461" d="M 282.515625 144.078125 L 282.917969 153.898438 L 279.101562 154.199219 L 279.402344 150.191406 C 279.402344 150.191406 277.292969 151.59375 275.585938 150.492188 C 274.066406 149.511719 274.882812 142.476562 274.882812 142.476562 L 282.515625 144.078125 " fill-opacity="1" fill-rule="nonzero"/><path fill="#479bdb" d="M 279.25 147.234375 C 279.25 147.234375 281.359375 150.742188 283.972656 149.238281 C 286.582031 147.738281 285.175781 144.53125 285.175781 144.53125 C 285.175781 144.53125 286.785156 145.132812 286.785156 144.53125 C 286.785156 143.929688 285.277344 144.027344 285.277344 144.027344 C 285.277344 144.027344 287.386719 143.128906 286.785156 142.023438 C 286.179688 140.921875 284.875 142.226562 284.875 142.226562 C 284.875 142.226562 283.769531 138.117188 278.046875 137.015625 C 272.320312 135.910156 270.613281 143.425781 278.949219 144.929688 C 278.949219 144.929688 280.734375 143.3125 281.160156 145.433594 C 281.761719 148.4375 279.25 147.234375 279.25 147.234375 " fill-opacity="1" fill-rule="nonzero"/><path fill="#2f8ac2" d="M 285.277344 144.027344 C 285.277344 144.027344 286.785156 143.929688 286.785156 144.53125 C 286.785156 145.132812 285.175781 144.53125 285.175781 144.53125 C 285.175781 144.53125 286.582031 147.738281 283.972656 149.238281 C 281.359375 150.742188 279.25 147.234375 279.25 147.234375 C 279.25 147.234375 281.761719 148.4375 281.160156 145.433594 C 280.734375 143.3125 278.949219 144.929688 278.949219 144.929688 C 274.535156 144.136719 272.9375 141.652344 273.261719 139.65625 C 273.671875 142.738281 280.4375 144.386719 282.765625 143.527344 C 284.480469 142.894531 284.226562 141.339844 283.808594 140.28125 C 284.636719 141.339844 284.875 142.226562 284.875 142.226562 C 284.875 142.226562 286.179688 140.921875 286.785156 142.023438 C 287.386719 143.128906 285.277344 144.027344 285.277344 144.027344 " fill-opacity="1" fill-rule="nonzero"/><path fill="#f27461" d="M 275.710938 154.1875 C 275.757812 154.175781 275.800781 154.164062 275.84375 154.152344 C 277.679688 153.707031 281.285156 153.242188 285.238281 153.585938 C 283.984375 153.984375 280.910156 154.679688 275.710938 154.1875 " fill-opacity="1" fill-rule="nonzero"/><path fill="#085d77" d="M 123.007812 218.414062 C 123.007812 218.414062 124.570312 217.183594 123.335938 215.625 C 122.101562 214.070312 120.542969 215.300781 120.378906 216.695312 C 120.214844 218.089844 123.007812 218.414062 123.007812 218.414062 " fill-opacity="1" fill-rule="nonzero"/><path fill="#000000" d="M 122.667969 215.855469 L 129.933594 205.808594 C 130.007812 205.703125 130.167969 205.71875 130.226562 205.835938 L 130.925781 207.273438 C 130.953125 207.328125 131.621094 208.019531 131.582031 208.070312 L 124 217 C 123.9375 217.089844 123.8125 217.09375 123.738281 217.019531 C 123.417969 216.683594 123.074219 216.371094 122.703125 216.089844 C 122.632812 216.035156 122.617188 215.929688 122.667969 215.855469 " fill-opacity="1" fill-rule="nonzero"/><path fill="#e55857" d="M 125.9375 213.539062 C 125.8125 213.558594 125.683594 213.558594 125.554688 213.546875 C 125.363281 213.53125 125.171875 213.460938 124.980469 213.488281 C 124.800781 213.511719 124.636719 213.597656 124.496094 213.703125 C 124.320312 213.839844 124.179688 214.011719 124.046875 214.1875 C 123.816406 214.488281 123.585938 214.773438 123.382812 215.089844 C 123.304688 215.210938 123.226562 215.335938 123.179688 215.472656 C 123.128906 215.609375 123.117188 215.761719 123.167969 215.898438 C 123.214844 216.023438 123.316406 216.121094 123.425781 216.199219 C 123.625 216.335938 123.894531 216.410156 124.101562 216.289062 C 124.191406 216.234375 124.804688 215.925781 124.835938 215.765625 C 124.859375 215.644531 124.226562 214.957031 124.125 214.777344 C 124.058594 214.664062 123.996094 214.535156 124.015625 214.40625 C 124.015625 214.382812 124.023438 214.359375 124.039062 214.339844 C 124.082031 214.296875 124.152344 214.316406 124.207031 214.34375 C 124.398438 214.429688 124.585938 214.527344 124.765625 214.636719 C 124.636719 214.441406 124.550781 214.214844 124.515625 213.980469 C 124.5 213.878906 124.503906 213.726562 124.632812 213.707031 C 124.757812 213.6875 124.890625 213.722656 125 213.789062 C 125.054688 213.820312 125.109375 213.863281 125.167969 213.894531 C 125.148438 213.800781 125.105469 213.71875 125.117188 213.621094 C 125.132812 213.527344 125.195312 213.429688 125.289062 213.410156 C 125.339844 213.398438 125.394531 213.410156 125.445312 213.425781 C 125.539062 213.457031 125.609375 213.550781 125.710938 213.496094 C 125.753906 213.472656 125.789062 213.433594 125.832031 213.414062 C 125.976562 213.335938 126.105469 213.394531 126.21875 213.488281 C 126.585938 213.785156 126.960938 214.1875 127.140625 214.628906 C 127.175781 214.710938 127.199219 214.816406 127.15625 214.898438 C 127.109375 214.984375 126.980469 215 126.898438 215.042969 L 126.863281 215.066406 L 126.855469 215.109375 C 126.859375 215.152344 126.878906 215.191406 126.890625 215.234375 C 126.898438 215.277344 126.898438 215.328125 126.875 215.363281 C 126.851562 215.390625 126.816406 215.40625 126.78125 215.417969 C 126.703125 215.441406 126.625 215.457031 126.542969 215.464844 C 126.515625 215.46875 126.484375 215.46875 126.464844 215.492188 L 126.449219 215.535156 C 126.433594 215.625 126.492188 215.71875 126.472656 215.804688 C 126.457031 215.863281 126.410156 215.910156 126.355469 215.933594 C 126.300781 215.960938 126.226562 215.980469 126.167969 215.984375 C 126.109375 215.984375 126.0625 215.964844 126.007812 216 L 125.960938 216.050781 C 125.933594 216.097656 125.957031 216.171875 125.9375 216.230469 C 125.734375 216.765625 123.71875 217.226562 123.71875 217.226562 C 123.71875 217.226562 121.839844 217.652344 122.113281 216.621094 C 122.363281 215.671875 122.550781 214.699219 123.113281 213.929688 C 123.511719 213.378906 123.992188 212.796875 124.566406 212.417969 C 124.765625 212.289062 125.152344 212.375 125.382812 212.40625 C 125.714844 212.449219 126.046875 212.535156 126.347656 212.691406 C 126.429688 212.734375 126.519531 212.789062 126.554688 212.875 C 126.59375 212.960938 126.574219 213.0625 126.535156 213.148438 C 126.457031 213.320312 126.289062 213.4375 126.113281 213.5 C 126.054688 213.515625 125.996094 213.53125 125.9375 213.539062 " fill-opacity="1" fill-rule="nonzero"/><path fill="#4d4d4d" d="M 151.910156 179.4375 L 148.246094 177.007812 C 147.171875 176.296875 141.28125 176.023438 133.441406 187.785156 C 125.597656 199.550781 125.253906 205.921875 126.378906 207.878906 C 127.503906 209.835938 130.628906 211.371094 130.628906 211.371094 L 151.910156 179.4375 " fill-opacity="1" fill-rule="nonzero"/><path fill="#333333" d="M 135.9375 191.863281 C 130.058594 200.683594 127.683594 209.414062 130.628906 211.371094 C 133.574219 213.324219 140.726562 207.761719 146.601562 198.941406 C 152.480469 190.125 154.855469 181.394531 151.910156 179.4375 C 148.964844 177.484375 141.8125 183.046875 135.9375 191.863281 " fill-opacity="1" fill-rule="nonzero"/><path fill="#000000" d="M 137.058594 192.609375 C 131.800781 200.5 129.421875 208.144531 131.75 209.6875 C 134.074219 211.230469 140.222656 206.085938 145.480469 198.199219 C 150.738281 190.308594 153.117188 182.664062 150.789062 181.117188 C 148.464844 179.574219 142.316406 184.71875 137.058594 192.609375 " fill-opacity="1" fill-rule="nonzero"/><path fill="#d8d8d8" d="M 142.953125 196.519531 C 138.691406 202.917969 133.84375 207.507812 130.921875 208.195312 C 130.425781 205.242188 132.796875 199.003906 137.058594 192.609375 C 141.324219 186.214844 146.167969 181.621094 149.09375 180.933594 C 149.585938 183.890625 147.21875 190.125 142.953125 196.519531 " fill-opacity="1" fill-rule="nonzero"/><path fill="#f1f1f1" d="M 137.679688 202.617188 L 142.710938 187.117188 L 135.238281 195.898438 L 134.125 205.421875 L 137.679688 202.617188 " fill-opacity="1" fill-rule="nonzero"/><path fill="#2f8ac2" d="M 104.246094 218.363281 C 100.800781 213.054688 107.132812 191.453125 107.617188 192.613281 C 107.703125 193.210938 113.367188 191.867188 112.324219 212.933594 C 112.324219 212.933594 117.757812 216.128906 121.996094 214.890625 C 121.996094 214.890625 121.773438 216.859375 123.007812 218.414062 C 123.007812 218.414062 108.449219 224.835938 104.246094 218.363281 " fill-opacity="1" fill-rule="nonzero"/><path fill="#085d77" d="M 89.546875 244.515625 C 89.546875 244.515625 99.03125 244.964844 104.34375 242.113281 C 107.527344 240.40625 107 225.316406 107 225.316406 L 92.070312 224.855469 L 89.546875 244.515625 " fill-opacity="1" fill-rule="nonzero"/><path fill="#f27461" d="M 118.691406 257.628906 L 119.011719 248.65625 L 120.757812 248.96875 L 120.046875 257.363281 L 118.691406 257.628906 " fill-opacity="1" fill-rule="nonzero"/><path fill="#562f5e" d="M 118.707031 258.839844 C 118.878906 258.875 119.050781 258.894531 119.226562 258.894531 C 120.425781 258.898438 126.71875 258.859375 126.804688 257.84375 C 126.898438 256.71875 124.769531 254.277344 120.152344 256.410156 C 116.480469 258.105469 117.960938 258.679688 118.707031 258.839844 " fill-opacity="1" fill-rule="nonzero"/><path fill="#481f52" d="M 120.152344 256.410156 C 120.363281 256.3125 120.566406 256.222656 120.769531 256.144531 C 119.917969 257.140625 121.707031 258.195312 124.402344 258.007812 C 126.058594 257.894531 126.519531 257.441406 126.578125 257.035156 C 126.75 257.324219 126.824219 257.613281 126.804688 257.84375 C 126.71875 258.859375 120.425781 258.898438 119.226562 258.894531 C 119.050781 258.894531 118.878906 258.875 118.707031 258.839844 C 117.960938 258.679688 116.480469 258.105469 120.152344 256.410156 " fill-opacity="1" fill-rule="nonzero"/><path fill="#e55857" d="M 79.382812 253.683594 L 88.292969 254.898438 L 87.8125 256.601562 L 79.511719 255.058594 L 79.382812 253.683594 " fill-opacity="1" fill-rule="nonzero"/><path fill="#562f5e" d="M 78.535156 253.523438 C 78.457031 253.679688 78.398438 253.84375 78.359375 254.015625 C 78.074219 255.179688 76.628906 261.289062 77.601562 261.609375 C 78.675781 261.96875 81.554688 260.476562 80.5625 255.496094 C 79.773438 251.535156 78.867188 252.839844 78.535156 253.523438 " fill-opacity="1" fill-rule="nonzero"/><path fill="#481f52" d="M 80.5625 255.496094 C 80.605469 255.722656 80.644531 255.945312 80.671875 256.15625 C 79.90625 255.097656 78.457031 256.582031 78.003906 259.242188 C 77.726562 260.875 78.058594 261.425781 78.441406 261.582031 C 78.117188 261.679688 77.820312 261.683594 77.601562 261.609375 C 76.628906 261.289062 78.074219 255.179688 78.359375 254.015625 C 78.398438 253.84375 78.457031 253.679688 78.535156 253.523438 C 78.867188 252.839844 79.773438 251.535156 80.5625 255.496094 " fill-opacity="1" fill-rule="nonzero"/><path fill="#481f52" d="M 99.558594 225.773438 L 108.933594 253.6875 C 108.976562 253.996094 110.917969 259.203125 108.597656 259.152344 L 84.039062 256.855469 L 84.015625 253.5 L 102.988281 254.082031 L 89.328125 226.894531 L 99.558594 225.773438 " fill-opacity="1" fill-rule="nonzero"/><path fill="#562f5e" d="M 89.488281 226.445312 L 91.074219 233.910156 C 92.273438 236.378906 95.046875 236.578125 98.367188 235.761719 L 118.28125 231.828125 L 118.289062 253.238281 L 121.023438 253.261719 L 123.992188 227.542969 C 124.097656 226.679688 123.464844 225.902344 122.597656 225.824219 L 98.632812 225.273438 L 89.488281 226.445312 " fill-opacity="1" fill-rule="nonzero"/><path fill="#481f52" d="M 121.023438 253.261719 L 121.253906 251.261719 L 121.222656 251.304688 C 116.902344 257.003906 120.078125 230.445312 120.078125 230.445312 C 120.078125 230.445312 103.863281 233.242188 98.027344 234.0625 C 93.574219 234.691406 90.796875 231.164062 89.730469 229.460938 L 91.074219 233.910156 C 92.273438 236.378906 95.046875 236.578125 98.367188 235.761719 L 118.28125 231.828125 L 118.289062 253.238281 L 121.023438 253.261719 " fill-opacity="1" fill-rule="nonzero"/><path fill="#371443" d="M 102.628906 234.917969 L 98.332031 235.765625 C 96.550781 236.203125 95.128906 236.304688 93.980469 236.074219 L 93.9375 236.074219 L 94.167969 236.527344 C 94.703125 236.609375 95.289062 236.632812 95.933594 236.589844 C 96.683594 236.539062 97.507812 236.398438 98.421875 236.175781 L 102.730469 235.324219 L 102.761719 235.3125 L 102.628906 234.917969 " fill-opacity="1" fill-rule="nonzero"/><path fill="#479bdb" d="M 106.726562 191.652344 C 106.28125 191.507812 105.628906 191.359375 104.902344 191.21875 C 104.925781 191.097656 104.941406 190.972656 104.949219 190.84375 C 105.207031 184.925781 94.117188 181.835938 88.699219 184.925781 C 84.949219 187.0625 86.394531 190.929688 87.636719 193.105469 C 77.476562 197.460938 71.84375 206.183594 70.648438 211.757812 C 69.027344 219.296875 83.675781 224.21875 83.675781 224.21875 C 84.953125 223.453125 85.652344 221.835938 85.652344 221.835938 C 81.78125 219.714844 79.621094 212.804688 79.621094 212.804688 C 84.5625 211.289062 86.480469 208.46875 86.480469 208.46875 C 89.570312 217.6875 89.546875 244.515625 89.546875 244.515625 C 93.441406 245.890625 96.828125 235.375 100.160156 229.945312 C 103.269531 224.882812 107.257812 225.574219 107.296875 225.476562 C 107.320312 225.410156 107.34375 225.34375 107.371094 225.273438 C 108.664062 221.53125 110.433594 206.871094 110.433594 206.871094 C 111.09375 200.550781 112.390625 193.480469 106.726562 191.652344 " fill-opacity="1" fill-rule="nonzero"/><path fill="#2f8ac2" d="M 105.207031 207.570312 C 106.238281 198.5625 104.433594 194.960938 104.433594 194.960938 L 102.113281 194.445312 C 104.433594 193.414062 104.878906 191.230469 104.878906 191.230469 L 105.191406 191.273438 C 105.097656 191.253906 105 191.234375 104.902344 191.21875 C 104.925781 191.097656 104.941406 190.972656 104.949219 190.84375 C 104.996094 189.78125 104.675781 188.8125 104.089844 187.949219 L 103.660156 188.011719 L 101.335938 194.445312 C 97.210938 195.730469 88.699219 194.445312 87.410156 191.871094 C 86.214844 189.488281 86.378906 187.988281 86.410156 187.78125 C 85.976562 189.65625 86.847656 191.722656 87.636719 193.105469 C 91.476562 198.710938 103.917969 195.476562 103.917969 195.476562 C 105.980469 200.621094 102.21875 227.433594 102.21875 227.433594 L 102.234375 227.421875 C 102.371094 227.300781 102.507812 227.183594 102.644531 227.078125 L 102.667969 227.058594 C 102.667969 227.058594 104.175781 216.574219 105.207031 207.570312 " fill-opacity="1" fill-rule="nonzero"/><path fill="#085d77" d="M 91.539062 192.128906 C 91.539062 192.128906 87.328125 186.460938 89.472656 185.4375 C 94.890625 182.867188 105.53125 186.652344 104.285156 190.457031 C 103.402344 193.160156 101.335938 194.445312 101.335938 194.445312 L 91.539062 192.128906 " fill-opacity="1" fill-rule="nonzero"/><path fill="#1279a9" d="M 88.964844 204.265625 L 88.96875 204.265625 C 89.085938 204.3125 89.140625 204.445312 89.089844 204.554688 C 88.417969 206.03125 87.597656 207.605469 86.636719 209.019531 C 86.585938 208.828125 86.535156 208.644531 86.480469 208.46875 C 87.335938 207.15625 88.078125 205.726562 88.691406 204.375 C 88.738281 204.269531 88.859375 204.222656 88.964844 204.265625 " fill-opacity="1" fill-rule="nonzero"/><path fill="#cc2276" d="M 106.652344 185.421875 C 106.652344 185.421875 113.363281 183.371094 111.804688 177.296875 C 110.242188 171.21875 102.175781 172.832031 98.761719 178.0625 C 98.761719 178.0625 97.90625 176.699219 97.128906 177.597656 C 96.058594 178.824219 97.355469 185.488281 97.355469 185.488281 C 97.355469 185.488281 100.53125 187.253906 106.652344 185.421875 " fill-opacity="1" fill-rule="nonzero"/><path fill="#b5106b" d="M 96.921875 178.03125 C 96.699219 181.417969 100.789062 178.378906 100.789062 178.378906 C 100.789062 178.378906 102.464844 181.945312 107.175781 181.699219 C 111.339844 181.484375 111.621094 177.621094 111.628906 176.726562 C 111.695312 176.910156 111.753906 177.097656 111.804688 177.296875 C 113.363281 183.371094 106.652344 185.421875 106.652344 185.421875 C 100.53125 187.253906 97.355469 185.488281 97.355469 185.488281 C 97.355469 185.488281 96.25 179.695312 96.921875 178.03125 " fill-opacity="1" fill-rule="nonzero"/><path fill="#f27461" d="M 101.335938 194.445312 L 97.300781 193.492188 L 98.492188 186.511719 L 101.925781 187.726562 L 101.535156 194.308594 L 101.335938 194.445312 " fill-opacity="1" fill-rule="nonzero"/><path fill="#e55857" d="M 101.726562 191.136719 C 98.679688 190.0625 98.664062 187.433594 98.664062 187.433594 L 101.910156 188 L 101.726562 191.136719 " fill-opacity="1" fill-rule="nonzero"/><path fill="#f27461" d="M 105.363281 183.972656 C 105.363281 183.972656 105.347656 190.230469 102.320312 189.6875 C 99.292969 189.144531 98.066406 186.820312 98.066406 186.820312 C 98.066406 186.820312 95.761719 186.957031 95.972656 185.09375 C 96.183594 183.226562 98 183.035156 98.445312 184.378906 C 98.445312 184.378906 98.867188 179.980469 105.363281 183.972656 " fill-opacity="1" fill-rule="nonzero"/><path fill="#81034f" d="M 98.292969 184.433594 C 98.425781 184.449219 98.554688 184.363281 98.589844 184.226562 C 98.765625 183.527344 99.300781 182.367188 100.921875 182.429688 C 103.199219 182.507812 106.03125 184.613281 106.058594 184.636719 C 106.179688 184.726562 106.355469 184.703125 106.445312 184.578125 C 106.535156 184.457031 106.511719 184.285156 106.390625 184.195312 C 106.269531 184.105469 103.398438 181.96875 100.941406 181.878906 C 98.800781 181.800781 98.191406 183.554688 98.054688 184.09375 C 98.019531 184.238281 98.109375 184.390625 98.253906 184.425781 L 98.292969 184.433594 " fill-opacity="1" fill-rule="nonzero"/><path fill="#ffffff" d="M 100.417969 187.789062 C 100.417969 187.789062 102.191406 188.832031 102.4375 188.28125 C 102.691406 187.703125 101.140625 185.742188 100.417969 187.789062 " fill-opacity="1" fill-rule="nonzero"/><path fill="#f27461" d="M 88.027344 222.148438 C 88.261719 222.714844 86.738281 222.835938 87 223.167969 C 87.261719 223.5 90.039062 223.472656 90.191406 224.214844 C 90.324219 224.84375 87.546875 224.136719 87.585938 224.320312 C 87.621094 224.507812 89.769531 225.730469 89.777344 226.152344 C 89.785156 226.574219 88.902344 226.40625 87.640625 225.351562 C 87.640625 225.351562 87.089844 224.925781 87.074219 225.042969 C 87.058594 225.160156 88.605469 226.855469 88.339844 227.0625 C 88.074219 227.269531 87.640625 226.859375 86.476562 225.511719 C 86.476562 225.511719 86.265625 225.246094 86.304688 225.433594 C 86.339844 225.617188 87.34375 227.304688 86.644531 227.097656 C 86.132812 226.949219 84.878906 224.976562 84.238281 223.921875 L 83.148438 223.109375 L 84.144531 221.78125 L 84.933594 222.414062 C 85.382812 222.285156 87.816406 221.628906 88.027344 222.148438 " fill-opacity="1" fill-rule="nonzero"/><path fill="#479bdb" d="M 82.679688 219.003906 C 83.511719 220.164062 84.507812 221.210938 85.652344 221.835938 C 85.652344 221.835938 84.953125 223.453125 83.675781 224.21875 C 83.675781 224.21875 81.871094 223.613281 79.597656 222.5 C 81.164062 222.003906 82.328125 220.648438 82.679688 219.003906 " fill-opacity="1" fill-rule="nonzero"/><path fill="#1279a9" d="M 96.617188 224.140625 L 92.421875 228.238281 L 92.101562 227.375 L 95.910156 223.023438 L 96.617188 224.140625 " fill-opacity="1" fill-rule="nonzero"/><path fill="#618533" d="M 81.355469 203.746094 C 80.28125 204.820312 78.800781 205.078125 78.050781 204.328125 C 77.296875 203.582031 77.558594 202.101562 78.636719 201.03125 C 79.710938 199.957031 81.191406 199.699219 81.941406 200.445312 C 82.695312 201.195312 82.429688 202.675781 81.355469 203.746094 " fill-opacity="1" fill-rule="nonzero"/></svg>