<svg xmlns="http://www.w3.org/2000/svg" xmlns:xlink="http://www.w3.org/1999/xlink" width="500" zoomAndPan="magnify" viewBox="0 0 375 374.999991" height="500" preserveAspectRatio="xMidYMid meet" version="1.0"><defs><clipPath id="d7d7639388"><path d="M 100 70.386719 L 266 70.386719 L 266 293 L 100 293 Z M 100 70.386719 " clip-rule="nonzero"/></clipPath><clipPath id="fca8f41b46"><path d="M 92 196 L 308.96875 196 L 308.96875 304.386719 L 92 304.386719 Z M 92 196 " clip-rule="nonzero"/></clipPath></defs><rect x="-37.5" width="450" fill="#ffffff" y="-37.499999" height="449.999989" fill-opacity="1"/><rect x="-37.5" width="450" fill="#ffffff" y="-37.499999" height="449.999989" fill-opacity="1"/><path fill="#f29f02" d="M 287.671875 150.125 C 286.074219 150.125 289.222656 290.019531 287.671875 291.570312 C 287.359375 291.882812 278.691406 292.074219 265.074219 292.167969 C 241.40625 265.9375 231.3125 292.273438 210.207031 292.230469 C 151.554688 292.101562 81.023438 291.570312 81.023438 291.570312 C 81.023438 291.570312 81.023438 181.363281 81.433594 180.542969 C 125.667969 115.03125 289.273438 150.125 287.671875 150.125 Z M 287.671875 150.125 " fill-opacity="1" fill-rule="nonzero"/><g clip-path="url(#d7d7639388)"><path fill="#5ba698" d="M 259.539062 108.878906 C 259.601562 108.65625 259.667969 108.472656 259.710938 108.390625 C 259.648438 108.449219 259.59375 108.507812 259.539062 108.574219 C 259.539062 107.609375 259.539062 106.636719 259.539062 105.667969 C 259.578125 105.707031 259.621094 105.703125 259.660156 105.734375 L 259.554688 104.554688 L 259.535156 104.605469 C 259.535156 103.101562 259.535156 101.609375 259.535156 100.15625 C 259.757812 100.046875 259.996094 99.785156 260.175781 99.488281 C 260.089844 99.460938 260.011719 99.460938 259.894531 98.738281 C 259.804688 98.960938 259.683594 100.019531 259.535156 99.882812 C 259.535156 99.515625 259.535156 99.148438 259.535156 98.789062 C 259.566406 98.710938 259.605469 98.628906 259.640625 98.484375 C 259.601562 98.546875 259.566406 98.554688 259.535156 98.53125 C 259.535156 97.375 259.535156 96.253906 259.535156 95.1875 L 259.738281 94.492188 C 259.890625 95.222656 260.210938 96.125 260.113281 97.03125 C 260.414062 96.617188 260.078125 96.824219 260.425781 96.175781 C 259.992188 96.734375 260.445312 93.855469 259.988281 94.753906 C 260.394531 94.089844 260.160156 93.609375 260.503906 92.746094 C 260.402344 92.773438 260.3125 93.050781 260.363281 92.292969 C 260.335938 92.257812 260.296875 92.175781 260.277344 92.121094 C 260.28125 92.097656 260.28125 92.089844 260.289062 92.070312 C 260.28125 92.085938 260.277344 92.097656 260.277344 92.113281 C 260.261719 92.078125 260.257812 92.078125 260.273438 92.128906 C 260.230469 92.3125 260.175781 92.457031 260.125 92.511719 C 259.890625 92.136719 259.902344 90.925781 259.78125 90.515625 C 259.828125 90.0625 259.894531 90.703125 260.003906 90.457031 L 259.824219 89.84375 C 260.046875 89.78125 260.191406 88.644531 260.320312 89.710938 L 260.332031 88.753906 C 260.457031 88.183594 260.503906 87.421875 260.417969 86.949219 C 260.472656 86.503906 260.1875 85.8125 260.355469 86.207031 L 260.230469 84.695312 L 260.289062 84.679688 C 260.316406 83.171875 259.921875 81.597656 260.089844 79.773438 C 259.964844 79.253906 259.8125 78.722656 259.644531 77.820312 L 259.785156 77.59375 C 259.660156 77.253906 259.539062 76.722656 259.371094 76.246094 C 259.199219 75.769531 258.996094 75.34375 258.824219 75.257812 C 258.859375 74.773438 258.351562 73.921875 257.578125 73.214844 C 256.816406 72.496094 255.828125 72.003906 255.246094 71.679688 L 255.089844 71.886719 C 254.28125 71.488281 253.433594 71.300781 252.382812 71.203125 L 252.402344 71.433594 C 252.175781 71.429688 251.921875 71.402344 251.648438 71.363281 C 251.378906 71.3125 251.082031 71.261719 250.769531 71.203125 C 250.15625 71.082031 249.445312 70.996094 248.785156 71 C 248.871094 70.914062 249.210938 70.9375 249.460938 71 C 247.851562 70.484375 246.136719 71.359375 244.703125 70.992188 C 244.351562 71.074219 244.089844 71.042969 243.84375 70.984375 C 243.878906 70.984375 243.90625 70.980469 243.929688 70.976562 C 243.890625 70.976562 243.839844 70.976562 243.785156 70.972656 C 243.632812 70.933594 243.46875 70.890625 243.292969 70.855469 C 243.441406 70.910156 243.582031 70.953125 243.707031 70.976562 C 243.433594 70.980469 243.019531 71.011719 242.613281 71.0625 L 242.449219 70.828125 C 242.414062 70.828125 242.390625 70.832031 242.355469 70.832031 C 241.957031 70.746094 242.039062 70.941406 242.25 71.121094 C 242.046875 71.160156 241.859375 71.207031 241.714844 71.265625 C 241.390625 70.878906 240.648438 71.394531 240.203125 70.984375 C 239.957031 71.164062 238.492188 71.144531 238.050781 71.449219 C 237.957031 71.449219 237.867188 71.449219 237.773438 71.449219 C 237.492188 71.425781 237.222656 71.410156 236.960938 71.449219 C 236.871094 71.449219 236.777344 71.449219 236.683594 71.449219 L 236.519531 71.195312 L 235.898438 71.449219 C 235.632812 71.449219 235.367188 71.449219 235.097656 71.449219 C 234.863281 71.339844 234.855469 71.238281 235.277344 71.078125 C 234.035156 71.386719 234.058594 71.265625 233.316406 71.449219 C 233.1875 71.449219 233.050781 71.449219 232.921875 71.449219 L 232.945312 71.371094 C 232.785156 71.375 232.585938 71.410156 232.390625 71.449219 C 232.074219 71.449219 231.757812 71.449219 231.4375 71.449219 C 230.324219 71.125 226.613281 71.414062 224.171875 71.082031 C 224.65625 71.65625 223 70.828125 222.898438 71.269531 C 222.753906 71.136719 222.402344 71.058594 222.808594 70.9375 C 221.523438 71.074219 220.875 70.71875 219.992188 71.097656 C 219.847656 70.960938 220.269531 70.898438 220.136719 70.816406 C 220.035156 70.847656 219.726562 70.9375 219.597656 70.855469 C 219.464844 70.773438 219.785156 70.738281 219.988281 70.683594 C 218.75 70.703125 218.5625 71.078125 218.464844 71.449219 C 218.367188 71.449219 218.265625 71.449219 218.164062 71.449219 C 217.847656 71.382812 217.613281 71.382812 217.375 71.449219 C 217.148438 71.449219 216.921875 71.449219 216.691406 71.449219 C 216.636719 71.386719 216.71875 71.332031 217.167969 71.308594 C 216.707031 71.289062 214.367188 71.121094 214.320312 71.433594 C 214.171875 71.351562 213.675781 71.410156 213.554688 71.449219 C 212.527344 71.429688 212.433594 71.402344 211.425781 71.429688 L 211.53125 71.449219 C 210.300781 71.449219 209.050781 71.449219 207.789062 71.449219 C 207.679688 71.433594 207.5625 71.414062 207.421875 71.390625 L 207.445312 71.449219 C 206.398438 71.449219 205.335938 71.449219 204.269531 71.449219 C 203.804688 71.230469 203.324219 70.9375 202.984375 70.898438 C 202.859375 70.855469 203.1875 70.828125 203.367188 70.792969 C 201.832031 70.492188 203.167969 71.101562 202.023438 71.175781 C 201.8125 71.003906 202.292969 70.75 201.527344 70.714844 C 201.144531 70.582031 199.289062 71.261719 198.242188 70.9375 C 198.472656 71.066406 198.707031 71.195312 198.175781 71.292969 C 197.359375 71.34375 195.972656 70.808594 195.234375 71.210938 C 195.132812 71.179688 195.089844 71.144531 195.089844 71.113281 C 194.527344 71.203125 193.355469 71.269531 192.84375 71.445312 C 192.769531 71.445312 192.695312 71.445312 192.621094 71.445312 C 191.90625 70.765625 188.816406 71.882812 188.832031 71.148438 L 186.914062 71.1875 L 186.960938 71.113281 C 185.734375 71.0625 185.304688 71.242188 184.875 71.425781 C 184.589844 71.371094 184.796875 71.304688 184.820312 71.265625 C 183.160156 71.125 182.886719 71.140625 181.660156 71.445312 C 181.539062 71.445312 181.421875 71.445312 181.300781 71.445312 L 181.195312 71.277344 C 180.789062 71.421875 178.605469 70.890625 176.855469 71.179688 C 176.875 71.148438 176.90625 71.101562 177.046875 71.066406 C 175.070312 71.359375 172.320312 70.386719 171.59375 71.28125 L 170.621094 71.445312 C 169.898438 71.445312 169.183594 71.445312 168.46875 71.445312 C 168.140625 71.425781 167.894531 71.386719 167.910156 71.285156 C 164.59375 71.308594 161.355469 71.046875 158.25 71.03125 L 158.609375 71.390625 L 157.527344 71.371094 C 157.242188 71.289062 157.144531 71.085938 157.917969 71.105469 C 157.511719 70.902344 156.621094 71.28125 156.601562 71.359375 C 155.082031 71.210938 157.191406 70.9375 156.726562 70.929688 L 156.09375 70.957031 L 156.234375 71 C 155.722656 71.148438 155.679688 71.304688 154.746094 71.285156 C 154.15625 71.210938 154.445312 71.0625 154.214844 71.046875 C 154.214844 71.023438 154.136719 71.011719 153.855469 71.039062 L 152.492188 71.011719 L 153.035156 71.292969 C 152.5625 71.40625 152.042969 71.332031 152.148438 71.453125 C 152.066406 71.453125 151.988281 71.453125 151.90625 71.453125 C 150.488281 71.175781 147.21875 71.40625 146.71875 71.269531 C 146.179688 71.402344 145.644531 71.445312 145.058594 71.453125 C 144.816406 71.453125 144.574219 71.453125 144.339844 71.453125 C 144.226562 71.453125 144.117188 71.449219 144 71.449219 C 144.003906 71.449219 144.011719 71.453125 144.015625 71.453125 C 143.804688 71.453125 143.589844 71.453125 143.378906 71.453125 C 142.917969 71.265625 141.699219 71.382812 141.15625 71.023438 C 141.746094 71.3125 139.136719 71.140625 139.464844 71.453125 C 139.398438 71.453125 139.332031 71.453125 139.261719 71.453125 C 139.214844 71.367188 139.390625 71.25 139.015625 71.148438 C 137.238281 71.40625 135.105469 70.980469 132.910156 71.066406 C 132.875 71.15625 133.242188 71.289062 132.773438 71.414062 L 131.613281 70.980469 C 131.179688 71.023438 131.214844 71.484375 130.421875 71.179688 C 130.53125 71.25 130.703125 71.363281 130.410156 71.390625 C 126.113281 70.964844 121.621094 71.738281 117.257812 70.941406 C 117.847656 71.113281 117.457031 71.125 117 71.136719 C 117.28125 71.175781 117.019531 71.332031 117.050781 71.453125 C 117.019531 71.453125 116.992188 71.453125 116.96875 71.453125 L 115.222656 71.140625 C 114.902344 71.457031 113.355469 71.179688 113.09375 71.453125 C 112.929688 71.453125 112.789062 71.453125 112.683594 71.453125 C 106 71.453125 100.113281 73.269531 100.113281 79.554688 C 100.113281 84.449219 100.113281 121.910156 100.113281 121.910156 C 107.820312 136.03125 259.539062 126.40625 259.539062 126.40625 C 259.539062 126.40625 259.539062 118.027344 259.539062 108.878906 Z M 260.195312 88.019531 C 260.191406 88.011719 260.191406 88 260.1875 87.996094 C 260.277344 87.472656 260.242188 87.652344 260.195312 88.019531 Z M 154.089844 71.136719 L 154.300781 71.199219 C 153.820312 71.265625 153.953125 71.203125 154.089844 71.136719 Z M 259.761719 93.941406 L 259.539062 94.082031 C 259.539062 94.035156 259.539062 93.984375 259.539062 93.9375 C 259.585938 93.71875 259.605469 93.367188 259.542969 93.179688 C 259.578125 93.289062 259.566406 93.453125 259.539062 93.636719 C 259.539062 93.480469 259.539062 93.320312 259.539062 93.164062 C 259.539062 93.171875 259.542969 93.171875 259.542969 93.171875 C 259.542969 93.164062 259.539062 93.164062 259.539062 93.164062 C 259.539062 92.613281 259.539062 92.089844 259.539062 91.585938 C 259.6875 92.257812 259.871094 93.015625 259.761719 93.941406 Z M 259.875 87.96875 C 259.761719 88.285156 259.644531 88.335938 259.539062 88.300781 C 259.539062 87.929688 259.539062 87.589844 259.539062 87.292969 C 259.539062 86.703125 259.542969 86.105469 259.554688 85.511719 C 259.726562 86.4375 260.109375 86.605469 259.875 87.96875 Z M 259.6875 83.515625 C 259.75 84.214844 259.648438 84.269531 259.566406 84.238281 C 259.574219 83.765625 259.574219 83.296875 259.566406 82.828125 C 259.609375 83.046875 259.65625 83.273438 259.6875 83.515625 Z M 248.550781 71.367188 C 248.515625 71.390625 248.464844 71.421875 248.417969 71.453125 C 248.304688 71.453125 248.191406 71.453125 248.070312 71.453125 Z M 247.238281 71.386719 L 247.339844 71.449219 C 247.222656 71.449219 247.097656 71.449219 246.976562 71.449219 C 247.058594 71.429688 247.148438 71.402344 247.238281 71.386719 Z M 113.648438 71.414062 C 113.625 71.425781 113.609375 71.441406 113.597656 71.449219 C 113.496094 71.449219 113.398438 71.449219 113.308594 71.449219 Z M 265.066406 292.167969 C 250.875 292.269531 231.308594 292.273438 210.203125 292.230469 C 210.203125 292.230469 210.582031 194.898438 210.203125 194.898438 C 209.828125 194.898438 263.613281 195.226562 264.992188 195.890625 C 266.15625 196.460938 265.339844 269.988281 265.066406 292.167969 Z M 260.25 126.808594 C 260.195312 126.824219 260.425781 126.554688 260.476562 127.042969 C 260.4375 127 260.230469 127.101562 260.25 126.808594 Z M 259.777344 121.984375 L 259.65625 121.355469 L 259.863281 122.066406 Z M 259.914062 120.40625 L 259.628906 120.042969 L 259.710938 119.914062 C 259.839844 119.109375 259.425781 117.902344 259.78125 117.476562 C 259.683594 118.15625 259.871094 119.425781 259.914062 120.40625 Z M 260.5 115.628906 C 260.421875 114.546875 260.402344 115.21875 260.542969 115.070312 C 260.535156 115.296875 260.535156 115.429688 260.535156 115.527344 C 260.523438 115.554688 260.515625 115.570312 260.5 115.628906 Z M 260.535156 115.527344 C 260.648438 115.214844 260.546875 116 260.535156 115.527344 Z M 260.582031 113.960938 L 260.460938 113.332031 C 260.597656 112.964844 260.671875 112.835938 260.742188 113.476562 C 260.679688 113.269531 260.660156 113.824219 260.582031 113.960938 Z M 260.253906 113.0625 L 260.199219 112.738281 C 260.296875 112.921875 260.289062 113.003906 260.253906 113.0625 Z M 260.253906 113.0625 L 260.363281 113.75 C 260.292969 113.457031 260.191406 113.320312 260.296875 113.378906 C 260.078125 113.164062 260.195312 113.152344 260.253906 113.0625 Z M 260.058594 114.316406 C 260.179688 114.945312 260.230469 114.488281 260.304688 114.136719 C 260.355469 115.335938 260.109375 115.511719 260.058594 114.316406 Z M 260.433594 110.152344 L 260.34375 109.6875 C 260.441406 109.640625 260.566406 109.394531 260.640625 109.433594 C 260.527344 109.460938 260.480469 109.914062 260.433594 110.152344 Z M 260.214844 109 L 260.34375 109.6875 C 260.261719 109.726562 260.199219 109.617188 260.214844 109 Z M 260.078125 113.761719 L 259.808594 112.628906 L 259.804688 112.410156 Z M 260.824219 107.183594 L 260.648438 106.792969 L 260.5625 106.488281 Z M 260.691406 103.699219 C 260.804688 104.066406 260.929688 104.472656 260.953125 104.949219 C 260.867188 104.640625 260.765625 105.332031 260.621094 105.042969 C 260.738281 104.5 260.75 104.085938 260.691406 103.699219 Z M 260.527344 103.082031 C 260.609375 103.285156 260.660156 103.492188 260.691406 103.695312 C 260.625 103.476562 260.5625 103.28125 260.527344 103.082031 Z M 260.253906 107.820312 C 260.253906 107.722656 260.253906 107.632812 260.257812 107.550781 L 260.472656 107.28125 C 260.417969 107.660156 260.296875 107.769531 260.253906 107.820312 Z M 260.269531 106.957031 C 260.269531 107.042969 260.261719 107.25 260.257812 107.546875 L 260.253906 107.554688 C 260.257812 107.210938 260.261719 107.035156 260.269531 106.957031 Z M 260.253906 107.820312 C 260.253906 107.84375 260.253906 107.863281 260.253906 107.886719 C 260.222656 107.859375 260.230469 107.84375 260.253906 107.820312 Z M 259.996094 110.8125 C 259.820312 110.199219 259.71875 110.671875 259.574219 110.378906 C 259.757812 109.558594 259.882812 110.40625 259.996094 110.8125 Z M 259.941406 108.960938 L 259.988281 108.226562 L 260.136719 109.019531 C 260.074219 108.816406 259.992188 108.945312 259.941406 108.960938 Z M 260.003906 107.953125 L 259.984375 108.222656 L 259.914062 107.859375 Z M 260.152344 104.554688 C 260.152344 104.140625 260.175781 103.703125 260.214844 103.285156 C 260.230469 103.675781 260.238281 104.023438 260.332031 104.339844 C 260.339844 104.796875 260.21875 104.613281 260.152344 104.554688 Z M 260.257812 105.832031 C 260.261719 105.851562 260.269531 105.882812 260.273438 105.90625 C 260.234375 105.910156 260.242188 105.875 260.257812 105.832031 Z M 260.214844 99.5 L 260.179688 99.488281 L 260.21875 99.425781 Z M 260.152344 104.554688 C 260.152344 104.824219 260.167969 105.074219 260.191406 105.308594 C 260.125 105.128906 260.074219 104.941406 260.113281 104.621094 C 260.105469 104.523438 260.125 104.53125 260.152344 104.554688 Z M 260.3125 102.554688 C 260.34375 102.359375 260.382812 102.175781 260.425781 102.011719 C 260.484375 102.0625 260.378906 102.390625 260.3125 102.554688 Z M 260.324219 105.773438 C 260.320312 105.753906 260.320312 105.742188 260.316406 105.726562 C 260.351562 105.683594 260.375 105.671875 260.324219 105.773438 Z M 260.257812 105.832031 C 260.230469 105.679688 260.207031 105.5 260.1875 105.308594 C 260.234375 105.4375 260.28125 105.5625 260.316406 105.726562 C 260.296875 105.753906 260.273438 105.792969 260.257812 105.832031 Z M 260.191406 100.972656 L 260.21875 99.5 C 260.28125 99.535156 260.359375 99.636719 260.453125 100.132812 C 260.296875 100.582031 260.21875 100.828125 260.1875 101.167969 L 260.160156 100.867188 Z M 260.1875 101.171875 L 260.300781 102.589844 L 260.296875 102.59375 C 260.289062 102.59375 260.277344 102.582031 260.261719 102.574219 C 260.238281 102.445312 260.222656 102.101562 260.179688 102.511719 C 260.207031 102.542969 260.234375 102.566406 260.261719 102.574219 C 260.261719 102.585938 260.261719 102.597656 260.269531 102.605469 C 260.253906 102.671875 260.269531 102.652344 260.296875 102.589844 L 260.300781 102.589844 L 260.300781 102.585938 C 260.304688 102.574219 260.3125 102.566406 260.316406 102.550781 C 260.277344 102.78125 260.242188 103.027344 260.21875 103.285156 C 260.210938 103.046875 260.199219 102.796875 260.160156 102.523438 C 260.039062 103.546875 259.867188 101.722656 259.921875 103.140625 C 259.828125 102.613281 259.664062 102.878906 259.648438 102 C 259.882812 101.5625 259.96875 102.28125 260.1875 102.511719 C 260.160156 101.847656 260.152344 101.46875 260.1875 101.171875 Z M 259.761719 108.347656 C 259.746094 108.363281 259.730469 108.375 259.710938 108.390625 C 259.738281 108.347656 259.757812 108.328125 259.761719 108.347656 Z M 260.230469 98.761719 L 260.546875 99.445312 L 260.320312 99.289062 Z M 260.375 97.40625 L 260.488281 97.8125 L 260.292969 97.753906 Z M 242.449219 70.828125 L 242.292969 70.613281 C 242.230469 70.390625 242.796875 70.675781 243.304688 70.859375 C 243.070312 70.8125 242.800781 70.789062 242.449219 70.828125 Z M 260.257812 80.855469 C 260.273438 81.171875 260.261719 81.539062 260.199219 81.992188 C 260.015625 81.859375 260.179688 81.414062 260.257812 80.855469 Z M 195.078125 71.117188 C 195.074219 71.066406 195.160156 71.023438 195.375 70.984375 C 195.421875 71.039062 195.296875 71.082031 195.078125 71.117188 Z M 260.257812 80.855469 C 260.234375 80.445312 260.175781 80.105469 260.089844 79.773438 C 260.09375 79.6875 260.09375 79.605469 260.109375 79.523438 C 260.320312 79.957031 260.316406 80.441406 260.257812 80.855469 Z M 116.996094 71.128906 C 116.777344 71.136719 116.542969 71.136719 116.402344 71.144531 C 116.710938 71.121094 116.890625 71.117188 116.996094 71.128906 Z M 260.390625 91.585938 C 260.414062 91.636719 260.402344 91.910156 260.390625 91.585938 Z M 260.355469 91.660156 C 260.339844 91.8125 260.316406 91.953125 260.292969 92.074219 C 260.320312 91.851562 260.339844 91.726562 260.355469 91.660156 Z M 260.375 92.292969 C 260.378906 92.210938 260.390625 92.117188 260.394531 92.007812 C 260.433594 92.296875 260.40625 92.335938 260.375 92.292969 Z M 260.355469 91.660156 C 260.371094 91.492188 260.378906 91.316406 260.378906 91.132812 C 260.382812 91.355469 260.390625 91.492188 260.390625 91.585938 C 260.382812 91.566406 260.371094 91.597656 260.355469 91.660156 Z M 260.488281 94.878906 C 260.472656 94.765625 260.402344 94.867188 260.355469 94.878906 C 260.394531 94.703125 260.445312 94.582031 260.433594 94.242188 Z M 260.5 94.949219 L 260.496094 94.878906 C 260.496094 94.898438 260.5 94.921875 260.5 94.949219 Z M 259.609375 96.507812 C 259.605469 96.539062 259.609375 96.566406 259.609375 96.597656 C 259.574219 96.105469 259.503906 95.660156 259.707031 95.601562 C 259.800781 96.128906 259.890625 96.652344 259.609375 96.507812 Z M 259.621094 97.164062 C 259.628906 97.015625 259.625 96.863281 259.617188 96.707031 C 259.644531 96.980469 259.738281 97.222656 259.621094 97.164062 Z M 260.398438 90.796875 C 260.480469 90.664062 260.171875 90.753906 260.222656 90.515625 C 260.089844 89.238281 260.65625 91.054688 260.398438 90.796875 Z M 113.761719 70.941406 L 113.339844 70.773438 L 113.996094 70.878906 Z M 112.1875 71.222656 L 112.582031 70.933594 L 112.738281 71.25 C 112.621094 71.179688 112.335938 71.207031 112.1875 71.222656 Z M 112.1875 71.222656 " fill-opacity="1" fill-rule="nonzero"/></g><path fill="#ebd5c4" d="M 258.019531 204.25 C 258.019531 204.25 257.519531 244.5625 256.878906 244.527344 C 256.234375 244.496094 217.3125 243.871094 217.3125 243.871094 L 217.3125 203.230469 Z M 258.019531 204.25 " fill-opacity="1" fill-rule="nonzero"/><g clip-path="url(#fca8f41b46)"><path fill="#072e36" d="M 192.441406 196.75 C 192.667969 197.203125 195.796875 265.414062 194.445312 266.441406 C 193.09375 267.472656 95.078125 267.832031 93.628906 267.765625 C 93.628906 267.765625 92.117188 199.957031 93.628906 198.621094 C 95.140625 197.285156 192.214844 196.296875 192.441406 196.75 Z M 297.347656 265.9375 L 274.71875 265.9375 C 274.71875 265.9375 262.988281 302.144531 261.972656 304.375 L 266.136719 304.375 L 268.089844 298.5 L 285.371094 298.5 L 283.472656 304.375 L 287.460938 304.375 L 289.929688 297.542969 L 302.9375 297.542969 L 304.839844 304.375 L 308.796875 304.375 Z M 240.429688 217.605469 C 240.25 217.15625 239.976562 216.761719 239.902344 216.253906 C 239.859375 215.984375 239.660156 215.769531 239.550781 215.523438 C 239.445312 215.28125 239.378906 215.019531 239.269531 214.777344 C 239.1875 214.585938 239.082031 214.40625 238.960938 214.238281 C 238.847656 214.074219 238.679688 213.949219 238.566406 213.785156 C 238.382812 213.515625 238.21875 213.238281 238.042969 212.964844 C 237.914062 212.769531 237.796875 212.566406 237.652344 212.386719 C 237.59375 212.3125 237.402344 212.277344 237.421875 212.214844 C 237.488281 211.992188 237.316406 211.925781 237.242188 211.800781 C 237.078125 211.496094 236.789062 211.292969 236.5625 211.042969 C 236.375 210.835938 236.171875 210.59375 235.90625 210.367188 C 235.644531 210.144531 235.257812 209.917969 234.792969 209.925781 C 234.332031 209.917969 233.929688 210.195312 233.6875 210.453125 C 233.4375 210.71875 233.253906 210.980469 233.023438 211.210938 C 232.910156 211.324219 232.878906 211.5 232.824219 211.621094 C 232.761719 211.761719 232.75 211.945312 232.625 212.03125 C 232.492188 212.125 232.554688 212.265625 232.5 212.375 C 232.210938 213.011719 231.960938 213.667969 231.664062 214.304688 C 231.375 214.933594 231.246094 215.628906 230.796875 216.191406 C 230.671875 216.351562 230.554688 216.554688 230.664062 216.804688 C 230.457031 217.105469 230.519531 217.492188 230.410156 217.820312 C 230.277344 218.210938 229.980469 218.542969 230.070312 219.007812 C 230.074219 219.023438 230.050781 219.058594 230.027344 219.0625 C 229.855469 219.082031 229.902344 219.21875 229.84375 219.296875 C 229.65625 219.550781 229.714844 219.878906 229.671875 220.171875 C 229.65625 220.320312 229.636719 220.464844 229.621094 220.609375 C 229.609375 220.699219 229.644531 220.804688 229.691406 220.90625 C 229.746094 221.042969 229.910156 221.101562 230.085938 221.082031 C 230.476562 221.039062 230.617188 220.816406 230.71875 220.582031 C 230.898438 220.167969 231.074219 219.746094 231.183594 219.304688 C 231.285156 218.867188 231.699219 218.546875 231.664062 218.058594 C 231.664062 218.035156 231.675781 218.007812 231.695312 217.988281 C 231.75 217.925781 231.847656 217.882812 231.878906 217.808594 C 231.90625 217.722656 231.863281 217.609375 231.882812 217.519531 C 231.90625 217.410156 232.035156 217.296875 231.984375 217.199219 C 231.871094 216.988281 231.96875 216.835938 232.074219 216.738281 C 232.332031 216.507812 232.359375 216.191406 232.511719 215.921875 C 232.640625 215.6875 232.636719 215.386719 232.914062 215.222656 C 232.96875 215.195312 232.996094 215.097656 232.964844 215.054688 C 232.867188 214.917969 232.960938 214.847656 232.992188 214.757812 C 233.125 214.429688 233.21875 214.082031 233.414062 213.789062 C 233.605469 213.503906 233.421875 213.070312 233.792969 212.867188 C 233.820312 212.851562 233.839844 212.816406 233.824219 212.800781 C 233.679688 212.632812 233.820312 212.542969 233.867188 212.4375 C 233.949219 212.253906 234.03125 212.050781 234.191406 211.929688 C 234.355469 211.8125 234.375 211.59375 234.484375 211.476562 C 234.589844 211.363281 234.734375 211.34375 234.78125 211.335938 C 234.84375 211.335938 234.816406 211.324219 234.898438 211.34375 C 234.933594 211.351562 234.957031 211.382812 235.066406 211.355469 C 235.171875 211.328125 235.277344 211.417969 235.257812 211.589844 C 235.253906 211.621094 235.257812 211.679688 235.273438 211.675781 C 235.480469 211.621094 235.5 211.777344 235.570312 211.886719 C 235.648438 212 235.796875 212.039062 235.890625 212.125 C 236.039062 212.265625 236.097656 212.472656 236.175781 212.664062 C 236.277344 212.933594 236.464844 213.15625 236.652344 213.371094 C 236.832031 213.570312 236.839844 213.867188 237.0625 214.054688 C 237.324219 214.273438 237.421875 214.613281 237.609375 214.894531 C 237.796875 215.175781 238.023438 215.433594 238.203125 215.71875 C 238.386719 216.019531 238.527344 216.335938 238.699219 216.640625 C 238.765625 216.753906 238.652344 216.960938 238.753906 216.988281 C 238.964844 217.046875 238.957031 217.210938 239.019531 217.332031 C 239.195312 217.660156 239.339844 218.007812 239.488281 218.347656 C 239.65625 218.734375 239.832031 219.125 239.960938 219.527344 C 240.054688 219.796875 240.339844 219.9375 240.558594 220.125 C 240.578125 220.140625 240.613281 220.148438 240.648438 220.148438 C 240.8125 220.144531 241.1875 219.839844 241.144531 219.726562 C 241.050781 219.480469 241.117188 219.195312 240.996094 218.949219 C 240.777344 218.5 240.605469 218.050781 240.429688 217.605469 Z M 240.429688 217.605469 " fill-opacity="1" fill-rule="nonzero"/></g><path fill="#f29f02" d="M 222.933594 219.710938 L 248.90625 219.710938 L 248.90625 231.191406 L 223.273438 231.191406 C 223.273438 231.191406 222.546875 220.894531 222.933594 219.710938 Z M 298.011719 267.886719 C 297.933594 267.789062 297.578125 267.910156 297.53125 268.070312 C 297.421875 268.417969 297.226562 268.707031 297.136719 269.058594 C 296.980469 269.6875 296.785156 270.304688 296.59375 270.917969 C 296.398438 271.535156 296.269531 272.175781 295.984375 272.769531 C 295.828125 273.089844 295.78125 273.46875 295.664062 273.816406 C 295.554688 274.15625 295.414062 274.476562 295.304688 274.8125 C 295.214844 275.074219 295.132812 275.347656 295.070312 275.617188 C 295.007812 275.878906 294.984375 276.144531 294.917969 276.398438 C 294.804688 276.816406 294.675781 277.238281 294.554688 277.65625 C 294.46875 277.960938 294.371094 278.261719 294.300781 278.566406 C 294.269531 278.6875 294.308594 278.886719 294.261719 278.933594 C 294.089844 279.085938 294.101562 279.304688 294.035156 279.488281 C 293.878906 279.921875 293.820312 280.378906 293.714844 280.824219 C 293.539062 281.550781 293.320312 282.269531 293.097656 282.984375 C 292.875 283.703125 292.742188 284.457031 292.402344 285.136719 C 292.320312 285.300781 292.289062 285.503906 292.238281 285.6875 C 292.179688 285.890625 292.15625 286.121094 292.054688 286.28125 C 291.949219 286.449219 291.976562 286.605469 291.933594 286.765625 C 291.65625 287.6875 291.410156 288.613281 291.125 289.527344 C 290.847656 290.429688 290.671875 291.367188 290.277344 292.238281 C 290.164062 292.484375 290.054688 292.777344 290.105469 293.066406 C 289.917969 293.515625 289.914062 293.992188 289.789062 294.457031 C 289.644531 294.996094 289.378906 295.519531 289.382812 296.09375 C 289.382812 296.117188 289.359375 296.164062 289.34375 296.179688 C 289.214844 296.25 289.226562 296.414062 289.175781 296.53125 C 289 296.914062 288.992188 297.324219 288.917969 297.714844 C 288.886719 297.902344 288.847656 298.101562 288.8125 298.292969 C 288.789062 298.414062 288.796875 298.542969 288.8125 298.664062 C 288.832031 298.824219 288.945312 298.863281 289.074219 298.792969 C 289.367188 298.644531 289.519531 298.308594 289.625 297.980469 C 289.824219 297.378906 290.019531 296.777344 290.15625 296.167969 C 290.296875 295.5625 290.644531 295.027344 290.683594 294.394531 C 290.683594 294.359375 290.695312 294.320312 290.710938 294.292969 C 290.765625 294.195312 290.839844 294.105469 290.871094 294.003906 C 290.902344 293.882812 290.886719 293.746094 290.910156 293.621094 C 290.9375 293.46875 291.050781 293.289062 291.023438 293.175781 C 290.96875 292.9375 291.058594 292.703125 291.152344 292.546875 C 291.367188 292.164062 291.425781 291.738281 291.566406 291.34375 C 291.691406 290.996094 291.71875 290.605469 291.941406 290.296875 C 291.984375 290.238281 292.019531 290.109375 291.996094 290.054688 C 291.9375 289.914062 292.015625 289.789062 292.046875 289.664062 C 292.179688 289.191406 292.285156 288.707031 292.464844 288.261719 C 292.632812 287.820312 292.546875 287.324219 292.835938 286.929688 C 292.855469 286.902344 292.871094 286.847656 292.863281 286.832031 C 292.773438 286.667969 292.882812 286.503906 292.933594 286.347656 C 293.007812 286.074219 293.085938 285.808594 293.226562 285.546875 C 293.367188 285.289062 293.40625 284.949219 293.503906 284.65625 C 293.597656 284.371094 293.730469 284.09375 293.820312 283.8125 C 293.945312 283.429688 294.054688 283.042969 294.152344 282.652344 C 294.191406 282.511719 294.234375 282.382812 294.226562 282.214844 C 294.21875 282.042969 294.273438 281.8125 294.410156 281.652344 C 294.4375 281.621094 294.484375 281.546875 294.476562 281.53125 C 294.394531 281.347656 294.507812 281.167969 294.558594 280.996094 C 294.617188 280.8125 294.597656 280.636719 294.636719 280.460938 C 294.695312 280.183594 294.816406 279.925781 294.925781 279.660156 C 295.082031 279.296875 295.183594 278.898438 295.265625 278.507812 C 295.347656 278.140625 295.546875 277.828125 295.597656 277.4375 C 295.660156 276.980469 295.855469 276.535156 295.96875 276.078125 L 296.296875 274.695312 L 296.699219 273.285156 C 296.742188 273.113281 296.921875 272.96875 296.898438 272.855469 C 296.847656 272.628906 296.957031 272.457031 297.003906 272.265625 C 297.136719 271.761719 297.292969 271.265625 297.4375 270.761719 C 297.601562 270.191406 297.761719 269.621094 297.945312 269.058594 C 298.070312 268.675781 298.023438 268.328125 298.03125 267.96875 C 298.042969 267.9375 298.027344 267.90625 298.011719 267.886719 Z M 298.011719 267.886719 " fill-opacity="1" fill-rule="nonzero"/><path fill="#f2532e" d="M 299.1875 160.0625 C 299.25 159.929688 299.292969 159.761719 299.28125 159.539062 L 299.503906 159.464844 C 299.726562 159.457031 299.402344 159.773438 299.1875 160.0625 Z M 289.949219 132.433594 C 289.855469 132.332031 289.792969 132.300781 289.753906 132.324219 C 289.84375 132.433594 289.914062 132.480469 289.949219 132.433594 Z M 295.679688 171.855469 C 295.636719 171.886719 295.609375 171.925781 295.570312 171.960938 C 295.507812 172.152344 295.445312 172.355469 295.308594 172.5625 C 295.511719 172.390625 295.683594 172.164062 295.679688 171.855469 Z M 248.257812 120.511719 C 248.34375 120.5 248.484375 120.5 248.621094 120.5 C 248.558594 120.484375 248.445312 120.484375 248.257812 120.511719 Z M 299.035156 160.304688 C 299.066406 160.234375 299.117188 160.152344 299.1875 160.0625 C 299.136719 160.164062 299.085938 160.261719 299.03125 160.355469 C 299.027344 160.386719 299.023438 160.421875 299.011719 160.445312 C 299.007812 160.429688 299.007812 160.410156 299.007812 160.386719 C 298.929688 160.53125 298.878906 160.6875 298.921875 160.917969 C 298.4375 161.730469 299.074219 162.960938 298.371094 163.820312 C 298.457031 163.6875 298.519531 163.484375 298.449219 163.414062 C 298.28125 164.21875 297.765625 164.929688 297.796875 165.46875 L 298.015625 165.492188 C 297.941406 166.101562 297.890625 166.574219 297.71875 167.039062 L 297.949219 167.140625 C 297.785156 167.460938 297.683594 168.023438 297.523438 168.535156 C 297.351562 169.035156 297.144531 169.488281 296.820312 169.59375 C 296.945312 169.839844 296.359375 170.476562 296.253906 170.875 L 296.039062 170.882812 C 295.757812 171.332031 295.65625 171.644531 295.5625 171.953125 C 295.425781 172.082031 295.308594 172.214844 295.203125 172.351562 C 295.148438 172.484375 295.101562 172.621094 295.042969 172.757812 C 295.121094 172.699219 295.210938 172.628906 295.304688 172.558594 C 295.214844 172.6875 295.101562 172.828125 294.949219 172.976562 C 291.085938 182.195312 283.925781 188.117188 273.324219 188.199219 C 254.75 188.34375 252.820312 168.992188 252.035156 154.402344 L 205.578125 153.816406 L 205.597656 154.828125 C 204.335938 170.148438 200.238281 188.203125 182.917969 188.203125 C 163.554688 188.203125 159.058594 164.261719 159.667969 154.410156 C 159.667969 154.410156 115.578125 153.472656 114.90625 153.960938 C 114.5625 155.089844 115.367188 188.203125 88.25 188.203125 C 69.3125 188.203125 66.140625 160.59375 68.148438 155.789062 C 70.160156 150.980469 84.882812 121.457031 84.882812 121.457031 L 121.433594 121.457031 L 136.980469 132.085938 L 164.066406 121.457031 L 204.886719 121.457031 L 217.96875 131.535156 L 245.6875 121.457031 L 246.792969 121.457031 C 246.554688 121.21875 246.332031 120.992188 246.585938 120.789062 L 246.234375 120.84375 C 246.351562 120.53125 247.339844 120.835938 247.542969 120.511719 L 248.652344 120.839844 C 248.621094 120.726562 248.804688 120.546875 248.625 120.507812 C 248.898438 120.503906 249.136719 120.484375 248.78125 120.316406 C 251.433594 121.109375 254.160156 120.339844 256.773438 120.761719 C 256.949219 120.734375 256.847656 120.625 256.777344 120.550781 C 257.257812 120.851562 257.234375 120.390625 257.5 120.351562 L 258.207031 120.789062 C 258.492188 120.65625 258.269531 120.527344 258.289062 120.441406 C 259.621094 120.351562 260.921875 120.777344 262 120.523438 C 262.34375 120.675781 261.917969 120.875 262.375 120.925781 C 261.753906 120.480469 263.695312 120.714844 263.300781 120.402344 C 263.738281 120.878906 264.933594 120.503906 264.734375 121.164062 C 265.28125 121.203125 265.183594 120.882812 265.03125 120.820312 C 265.65625 120.84375 266.167969 120.851562 266.679688 120.644531 C 267.023438 120.796875 269.558594 120.480469 270.125 120.976562 C 269.742188 120.652344 270.152344 120.808594 270.519531 120.667969 L 270.1875 120.382812 L 271.019531 120.410156 C 271.1875 120.382812 271.234375 120.398438 271.234375 120.421875 C 271.375 120.433594 271.203125 120.585938 271.558594 120.65625 C 272.125 120.675781 272.152344 120.515625 272.460938 120.371094 L 272.375 120.328125 L 272.757812 120.300781 C 273.035156 120.308594 271.757812 120.585938 272.679688 120.730469 C 272.695312 120.652344 273.234375 120.277344 273.480469 120.480469 C 273.011719 120.464844 273.070312 120.664062 273.242188 120.746094 L 273.902344 120.761719 L 273.683594 120.402344 C 275.570312 120.421875 277.535156 120.675781 279.554688 120.65625 C 279.527344 120.976562 280.984375 120.671875 280.800781 121.140625 L 280.722656 121.097656 C 280.226562 121.140625 280.871094 121.464844 281.269531 121.410156 C 280.851562 121.261719 282.023438 120.941406 281 120.875 L 281.792969 120.652344 C 281.859375 120.511719 281.957031 120.421875 282.078125 120.363281 C 282.132812 120.335938 282.203125 120.308594 282.273438 120.296875 C 282.308594 120.285156 282.347656 120.28125 282.386719 120.277344 C 282.445312 120.269531 282.507812 120.269531 282.5625 120.265625 C 283.089844 120.253906 283.707031 120.324219 284.292969 120.390625 C 284.433594 120.789062 284.570312 121.171875 284.71875 121.527344 C 284.789062 121.703125 284.867188 121.875 284.953125 122.039062 L 285.015625 122.152344 L 285.066406 122.230469 C 285.097656 122.277344 285.132812 122.328125 285.171875 122.375 C 285.105469 122.3125 285.050781 122.3125 285.023438 122.316406 C 285.730469 123.160156 285.8125 124.585938 286.046875 124.75 L 285.863281 124.9375 C 286.585938 125.605469 286.664062 125.691406 286.984375 126.738281 C 286.941406 126.742188 286.824219 126.65625 286.851562 126.835938 C 287.128906 126.992188 287.402344 127.15625 287.671875 127.851562 L 287.589844 127.855469 L 288.117188 128.894531 C 287.425781 129.203125 289.378906 130.507812 288.785156 131.167969 C 289.078125 131.285156 289.503906 132.023438 289.757812 132.320312 C 289.730469 132.335938 289.710938 132.375 289.707031 132.445312 C 290.261719 132.679688 290.136719 133.667969 290.386719 134.097656 C 290.609375 134.347656 290.667969 134.167969 290.726562 133.984375 C 290.707031 134.699219 291.792969 135.433594 291.769531 135.699219 C 291.9375 136.136719 291.582031 135.980469 291.484375 136.167969 C 291.839844 136.765625 292.054688 135.773438 292.175781 136.746094 C 292.097656 136.660156 291.992188 136.492188 291.980469 136.582031 C 292.074219 136.933594 291.554688 137.875 291.867188 138.121094 L 291.890625 137.851562 C 292.339844 138.359375 291.980469 139.507812 292.488281 139.386719 L 292.675781 139.230469 C 292.863281 140.378906 292.960938 139.621094 293.191406 140.765625 L 293.148438 140.769531 C 293.402344 141.199219 293.246094 141.566406 293.691406 141.625 L 293.667969 141.453125 C 293.953125 141.996094 293.953125 142.058594 294.199219 142.632812 C 294.261719 142.6875 294.4375 142.933594 294.40625 143.046875 C 294.703125 142.941406 295.148438 144.304688 295.25 144.5625 C 295 144.132812 294.976562 144.40625 294.917969 144.589844 C 295.273438 144.742188 295.386719 144.917969 295.386719 145.359375 C 295.765625 145.246094 296.183594 145.144531 296.539062 145.855469 C 296.433594 145.769531 296.324219 145.609375 296.285156 145.71875 C 296.246094 145.824219 296.40625 145.953125 296.457031 146.003906 C 296.417969 146.109375 296.253906 145.902344 296.167969 146.039062 C 296.738281 146.367188 296.582031 146.871094 297.039062 147.523438 C 296.824219 147.347656 296.84375 147.574219 296.757812 147.710938 C 297.1875 147.574219 296.859375 148.839844 297.253906 148.328125 C 297.59375 149.867188 298.859375 151.835938 298.796875 152.574219 C 298.757812 152.707031 298.882812 152.855469 298.984375 153.042969 C 299.027344 153.234375 299.09375 153.492188 299.09375 153.632812 L 298.902344 153.59375 C 299.25 154.351562 299.03125 154.175781 299.375 155.074219 C 299.148438 154.699219 299.046875 154.851562 298.84375 155.214844 L 299.226562 155.835938 L 298.914062 155.941406 C 299.023438 156.199219 298.964844 156.472656 298.902344 156.75 C 298.90625 156.613281 298.871094 156.6875 298.820312 156.691406 C 299.234375 156.851562 299.089844 157.941406 299.277344 158.128906 C 298.851562 158.367188 299.316406 158.871094 298.90625 159.03125 C 298.953125 159.128906 298.984375 159.25 299.007812 159.378906 C 299.199219 159.269531 299.410156 159.242188 299.289062 159.480469 C 299.289062 159.503906 299.289062 159.519531 299.289062 159.539062 L 299.035156 159.617188 C 299.054688 159.875 299.050781 160.136719 299.035156 160.304688 Z M 294.652344 144.636719 C 294.648438 144.722656 294.621094 144.859375 294.589844 145.011719 L 294.660156 145.167969 C 294.71875 145.214844 294.777344 145.265625 294.824219 145.300781 C 294.785156 145.289062 294.742188 145.273438 294.703125 145.257812 L 294.867188 145.617188 C 294.925781 145.59375 294.960938 145.523438 294.957031 145.402344 C 294.917969 145.378906 294.875 145.339844 294.824219 145.300781 C 295 145.363281 295.132812 145.390625 295.140625 145.28125 Z M 271.289062 120.5625 L 271.15625 120.5 C 271.082031 120.570312 271 120.628906 271.289062 120.5625 Z M 297.375 165.894531 C 297.335938 165.839844 297.265625 165.792969 297.175781 165.746094 C 297.132812 165.945312 297.089844 166.148438 297.042969 166.347656 C 297.214844 166.125 297.359375 165.921875 297.375 165.894531 Z M 298.074219 162.519531 L 298.269531 162.390625 C 298.253906 162.058594 298.101562 161.71875 297.90625 161.410156 C 297.859375 161.796875 297.804688 162.179688 297.753906 162.558594 C 297.898438 162.816406 298.027344 163.042969 298.132812 163.191406 Z M 298.785156 155.148438 C 298.644531 154.984375 298.503906 154.820312 298.359375 154.660156 C 298.359375 154.820312 298.355469 154.976562 298.351562 155.136719 C 298.523438 155.117188 298.679688 155.101562 298.785156 155.148438 Z M 246.792969 120.242188 L 246.394531 120.136719 L 246.648438 120.304688 Z M 246.03125 120.617188 L 245.941406 120.300781 L 245.699219 120.589844 C 245.785156 120.570312 245.964844 120.546875 246.03125 120.617188 Z M 246.03125 120.617188 " fill-opacity="1" fill-rule="nonzero"/><path fill="#ebd5c4" d="M 137.804688 188.199219 C 120.773438 188.066406 114.761719 173.695312 114.914062 153.953125 L 121.4375 121.453125 L 164.070312 121.453125 L 159.671875 154.402344 C 158.882812 168.992188 156.382812 188.34375 137.804688 188.199219 Z M 245.699219 121.453125 L 204.890625 121.453125 L 205.542969 154.824219 C 206.804688 170.144531 212.378906 188.199219 229.695312 188.199219 C 249.058594 188.199219 252.648438 164.257812 252.042969 154.402344 Z M 249.28125 79.398438 L 114.339844 77.578125 C 111.234375 77.535156 108.652344 79.949219 108.484375 83.046875 L 107.015625 110.097656 C 106.835938 113.410156 109.472656 116.195312 112.796875 116.195312 L 249.203125 116.195312 C 252.402344 116.195312 254.988281 113.601562 254.988281 110.414062 L 254.988281 85.179688 C 254.988281 82.011719 252.449219 79.4375 249.28125 79.398438 Z M 98.414062 205.097656 C 98.722656 206.589844 99.667969 258.25 99.703125 259.609375 C 99.738281 260.96875 187.953125 260.878906 189.082031 259.609375 C 190.210938 258.339844 187.21875 206.257812 187.253906 204.773438 C 187.300781 203.292969 98.101562 203.613281 98.414062 205.097656 Z M 98.414062 205.097656 " fill-opacity="1" fill-rule="nonzero"/><path fill="#072e36" d="M 216.757812 248.578125 C 216.757812 249.792969 215.773438 250.777344 214.554688 250.777344 C 213.339844 250.777344 212.351562 249.792969 212.351562 248.578125 C 212.351562 247.363281 213.339844 246.378906 214.554688 246.378906 C 215.773438 246.378906 216.757812 247.363281 216.757812 248.578125 Z M 283.191406 151.734375 C 280.90625 151.808594 278.726562 151.664062 276.367188 151.730469 C 272.199219 151.828125 268.007812 151.855469 263.832031 151.878906 C 259.628906 151.898438 255.429688 152.015625 251.214844 151.890625 C 248.949219 151.820312 246.484375 151.921875 244.113281 151.917969 C 241.832031 151.898438 239.558594 151.878906 237.277344 151.859375 C 235.476562 151.855469 233.65625 151.867188 231.859375 151.894531 C 230.140625 151.921875 228.433594 152.011719 226.714844 152.03125 C 223.894531 152.046875 221.066406 152.066406 218.246094 152.085938 C 216.210938 152.101562 214.171875 152.113281 212.144531 152.125 C 211.328125 152.136719 210.140625 152.285156 209.789062 152.230469 C 208.53125 152.054688 207.195312 152.167969 205.925781 152.160156 C 202.945312 152.136719 200.003906 152.261719 197.054688 152.304688 C 192.214844 152.375 187.339844 152.382812 182.484375 152.382812 C 177.605469 152.382812 172.691406 152.527344 167.835938 152.339844 C 166.664062 152.292969 165.359375 152.34375 164.121094 152.347656 C 162.761719 152.351562 161.253906 152.425781 160.089844 152.347656 C 158.851562 152.265625 157.941406 152.382812 156.886719 152.382812 C 150.671875 152.402344 144.453125 152.414062 138.246094 152.433594 C 132.121094 152.425781 125.984375 152.585938 119.863281 152.390625 C 118.132812 152.339844 116.113281 152.308594 114.398438 152.507812 C 111.273438 152.429688 108.285156 152.632812 105.1875 152.652344 C 101.558594 152.671875 97.84375 152.523438 94.273438 152.769531 C 94.109375 152.777344 93.769531 152.769531 93.675781 152.742188 C 92.984375 152.585938 92.011719 152.679688 91.175781 152.652344 C 88.488281 152.566406 85.925781 152.730469 83.335938 152.777344 C 82.097656 152.804688 80.816406 152.835938 79.542969 152.871094 C 78.75 152.875 77.949219 152.933594 77.246094 153 C 76.292969 153.085938 76.28125 153.253906 76.957031 153.429688 C 77.710938 153.617188 78.675781 153.738281 79.734375 153.808594 C 80.78125 153.871094 81.917969 153.898438 83.039062 153.90625 C 87.097656 153.953125 91.195312 153.964844 95.234375 153.910156 C 99.257812 153.855469 103.226562 154.117188 107.226562 153.910156 C 107.433594 153.902344 107.691406 153.902344 107.898438 153.910156 C 108.601562 153.945312 109.296875 154.019531 109.992188 154.011719 C 110.808594 154.007812 111.601562 153.921875 112.429688 153.90625 C 113.433594 153.882812 114.769531 153.964844 115.414062 153.882812 C 116.8125 153.699219 118.402344 153.726562 119.566406 153.789062 C 122.324219 153.9375 125.0625 153.839844 127.792969 153.867188 C 130.191406 153.890625 132.652344 153.765625 134.988281 153.953125 C 135.417969 153.988281 136.304688 153.980469 136.578125 153.929688 C 137.355469 153.785156 138.253906 153.839844 139.097656 153.835938 C 142.261719 153.820312 145.464844 153.761719 148.578125 153.816406 C 151.605469 153.867188 154.539062 153.519531 157.527344 153.765625 C 157.707031 153.78125 158.101562 153.78125 158.179688 153.761719 C 159.039062 153.5625 160.261719 153.644531 161.308594 153.640625 C 163.148438 153.632812 164.945312 153.621094 166.828125 153.707031 C 168.703125 153.796875 170.867188 153.699219 172.894531 153.707031 C 174.839844 153.738281 176.773438 153.761719 178.71875 153.789062 C 181.3125 153.800781 183.914062 153.78125 186.511719 153.757812 C 187.457031 153.746094 188.355469 153.757812 189.371094 153.664062 C 190.414062 153.574219 191.941406 153.558594 193.191406 153.679688 C 193.453125 153.703125 193.972656 153.738281 194.054688 153.722656 C 195.058594 153.527344 196.375 153.601562 197.527344 153.601562 C 198.773438 153.601562 199.839844 153.5 200.980469 153.472656 C 202.8125 153.429688 204.632812 153.488281 206.476562 153.53125 C 209 153.589844 211.671875 153.550781 214.25 153.496094 C 216.683594 153.449219 218.972656 153.589844 221.519531 153.488281 C 224.449219 153.371094 227.597656 153.445312 230.640625 153.40625 C 233.71875 153.347656 236.777344 153.292969 239.855469 153.234375 C 243.011719 153.210938 246.1875 153.183594 249.34375 153.160156 C 250.511719 153.144531 251.730469 153.332031 252.382812 153.242188 C 253.695312 153.0625 254.980469 153.132812 256.242188 153.117188 C 259.625 153.082031 263.019531 153.050781 266.410156 153.019531 C 270.253906 152.976562 274.097656 152.925781 277.9375 152.882812 C 280.535156 152.855469 282.621094 152.613281 284.90625 152.363281 C 285.085938 152.34375 285.257812 152.304688 285.339844 152.277344 C 285.746094 152.097656 284.246094 151.695312 283.191406 151.734375 Z M 158.207031 219.652344 C 157.828125 219.945312 157.378906 220.097656 157 220.410156 C 156.335938 220.964844 155.644531 221.492188 154.949219 222.007812 C 154.25 222.527344 153.609375 223.132812 152.828125 223.546875 C 152.410156 223.773438 152.054688 224.15625 151.660156 224.445312 C 151.277344 224.722656 150.867188 224.96875 150.480469 225.246094 C 150.175781 225.460938 149.882812 225.699219 149.601562 225.949219 C 149.335938 226.191406 149.109375 226.472656 148.839844 226.703125 C 148.394531 227.085938 147.925781 227.441406 147.476562 227.8125 C 147.148438 228.078125 146.816406 228.339844 146.503906 228.617188 C 146.378906 228.730469 146.277344 228.996094 146.183594 229 C 145.863281 229.023438 145.714844 229.28125 145.503906 229.433594 C 145 229.796875 144.601562 230.269531 144.144531 230.683594 C 143.402344 231.363281 142.621094 232 141.832031 232.632812 C 141.046875 233.269531 140.351562 234.027344 139.445312 234.527344 C 139.230469 234.644531 139.050781 234.855469 138.859375 235.023438 C 138.644531 235.207031 138.449219 235.457031 138.214844 235.554688 C 137.964844 235.65625 137.890625 235.863281 137.726562 236.007812 L 134.804688 238.546875 C 133.835938 239.367188 132.976562 240.316406 131.890625 241.011719 C 131.582031 241.210938 131.246094 241.460938 131.113281 241.847656 C 130.574219 242.21875 130.246094 242.78125 129.777344 243.226562 C 129.234375 243.742188 128.558594 244.152344 128.175781 244.832031 C 128.15625 244.863281 128.097656 244.90625 128.070312 244.902344 C 127.855469 244.882812 127.769531 245.089844 127.625 245.183594 C 127.15625 245.5 126.875 245.980469 126.523438 246.390625 C 126.359375 246.589844 126.1875 246.796875 126.015625 247.003906 C 125.90625 247.128906 125.832031 247.292969 125.78125 247.449219 C 125.703125 247.65625 125.824219 247.78125 126.035156 247.800781 C 126.511719 247.84375 126.894531 247.566406 127.25 247.253906 C 127.882812 246.707031 128.519531 246.144531 129.097656 245.539062 C 129.671875 244.933594 130.464844 244.582031 130.9375 243.871094 C 130.960938 243.835938 131 243.800781 131.039062 243.78125 C 131.171875 243.707031 131.324219 243.664062 131.429688 243.570312 C 131.550781 243.453125 131.617188 243.28125 131.734375 243.152344 C 131.875 243 132.136719 242.875 132.179688 242.722656 C 132.269531 242.394531 132.542969 242.203125 132.761719 242.085938 C 133.289062 241.816406 133.652344 241.375 134.097656 241.027344 C 134.488281 240.722656 134.792969 240.296875 135.285156 240.117188 C 135.375 240.085938 135.507812 239.960938 135.515625 239.886719 C 135.539062 239.675781 135.71875 239.59375 135.847656 239.476562 C 136.332031 239.039062 136.804688 238.570312 137.332031 238.191406 C 137.84375 237.832031 138.082031 237.175781 138.71875 236.96875 C 138.757812 236.953125 138.820312 236.90625 138.820312 236.878906 C 138.824219 236.613281 139.074219 236.519531 139.238281 236.378906 C 139.527344 236.128906 139.804688 235.882812 140.160156 235.703125 C 140.515625 235.519531 140.800781 235.167969 141.132812 234.90625 C 141.453125 234.660156 141.804688 234.457031 142.117188 234.207031 C 142.539062 233.875 142.949219 233.523438 143.347656 233.167969 C 143.492188 233.039062 143.644531 232.929688 143.753906 232.730469 C 143.867188 232.527344 144.101562 232.316406 144.382812 232.246094 C 144.441406 232.234375 144.546875 232.191406 144.546875 232.164062 C 144.582031 231.886719 144.847656 231.773438 145.035156 231.625 C 145.238281 231.464844 145.34375 231.25 145.511719 231.078125 C 145.78125 230.808594 146.117188 230.621094 146.445312 230.421875 C 146.894531 230.148438 147.308594 229.78125 147.695312 229.410156 C 148.0625 229.0625 148.527344 228.878906 148.878906 228.484375 C 149.289062 228.023438 149.855469 227.6875 150.332031 227.277344 C 150.816406 226.863281 151.269531 226.414062 151.75 226.003906 C 152.25 225.578125 152.78125 225.191406 153.28125 224.773438 C 153.464844 224.617188 153.789062 224.617188 153.84375 224.46875 C 153.953125 224.167969 154.214844 224.066406 154.414062 223.902344 C 154.949219 223.457031 155.515625 223.035156 156.070312 222.605469 C 156.695312 222.117188 157.316406 221.617188 157.960938 221.152344 C 158.398438 220.839844 158.605469 220.394531 158.890625 219.996094 C 158.914062 219.964844 158.921875 219.917969 158.917969 219.882812 C 158.902344 219.691406 158.386719 219.511719 158.207031 219.652344 Z M 153.988281 234.046875 C 153.886719 233.925781 153.5 233.671875 153.460938 233.714844 C 153.378906 233.804688 153.191406 233.78125 153.125 233.886719 C 153.003906 234.070312 152.847656 234.226562 152.6875 234.371094 C 152.53125 234.519531 152.4375 234.734375 152.171875 234.789062 C 152.03125 234.820312 152.003906 234.972656 151.90625 235.050781 C 151.808594 235.128906 151.683594 235.167969 151.585938 235.238281 C 151.511719 235.296875 151.449219 235.363281 151.398438 235.445312 C 151.351562 235.523438 151.347656 235.640625 151.296875 235.71875 C 151.210938 235.839844 151.105469 235.9375 151.003906 236.046875 C 150.929688 236.121094 150.855469 236.195312 150.789062 236.28125 C 150.765625 236.316406 150.828125 236.457031 150.777344 236.4375 C 150.597656 236.359375 150.625 236.484375 150.570312 236.519531 C 150.433594 236.605469 150.410156 236.789062 150.328125 236.925781 C 150.191406 237.140625 150.007812 237.316406 149.820312 237.488281 C 149.632812 237.664062 149.550781 237.933594 149.226562 237.980469 C 149.148438 237.992188 149.132812 238.074219 149.089844 238.117188 C 149.042969 238.167969 149.039062 238.269531 148.9375 238.261719 C 148.832031 238.25 148.878906 238.363281 148.839844 238.402344 C 148.613281 238.632812 148.414062 238.886719 148.171875 239.105469 C 147.9375 239.320312 147.824219 239.648438 147.453125 239.742188 C 147.347656 239.769531 147.25 239.824219 147.339844 240.023438 C 147.164062 240.085938 147.203125 240.332031 147.105469 240.460938 C 146.992188 240.609375 146.742188 240.644531 146.796875 240.949219 C 146.800781 240.964844 146.777344 240.96875 146.757812 240.957031 C 146.617188 240.875 146.652344 240.976562 146.605469 240.992188 C 146.445312 241.035156 146.472656 241.242188 146.429688 241.382812 C 146.40625 241.449219 146.394531 241.527344 146.371094 241.59375 C 146.359375 241.636719 146.382812 241.714844 146.410156 241.792969 C 146.453125 241.898438 146.578125 242.015625 146.71875 242.097656 C 147.035156 242.28125 147.160156 242.226562 147.25 242.15625 C 147.414062 242.019531 147.574219 241.878906 147.675781 241.6875 C 147.777344 241.492188 148.121094 241.527344 148.109375 241.238281 C 148.109375 241.222656 148.121094 241.214844 148.136719 241.214844 C 148.183594 241.210938 148.265625 241.234375 148.285156 241.203125 C 148.3125 241.171875 148.28125 241.082031 148.292969 241.039062 C 148.3125 240.988281 148.425781 240.992188 148.386719 240.914062 C 148.300781 240.734375 148.382812 240.703125 148.472656 240.699219 C 148.679688 240.691406 148.710938 240.527344 148.835938 240.445312 C 148.941406 240.378906 148.941406 240.199219 149.167969 240.242188 C 149.210938 240.253906 149.234375 240.214844 149.210938 240.171875 C 149.132812 240.046875 149.207031 240.050781 149.234375 240.015625 C 149.34375 239.890625 149.417969 239.738281 149.578125 239.660156 C 149.734375 239.585938 149.589844 239.246094 149.882812 239.308594 C 149.902344 239.3125 149.917969 239.296875 149.90625 239.285156 C 149.792969 239.121094 149.902344 239.128906 149.9375 239.089844 C 150 239.019531 150.0625 238.945312 150.195312 238.941406 C 150.332031 238.929688 150.339844 238.792969 150.429688 238.722656 C 150.511719 238.660156 150.632812 238.636719 150.714844 238.574219 C 150.820312 238.488281 150.90625 238.382812 150.988281 238.273438 C 151.019531 238.238281 151.054688 238.207031 151.03125 238.109375 C 151.003906 238.015625 151.050781 237.945312 151.191406 237.984375 C 151.21875 237.996094 151.265625 237.996094 151.253906 237.980469 C 151.148438 237.8125 151.253906 237.816406 151.300781 237.777344 C 151.351562 237.734375 151.316406 237.628906 151.339844 237.570312 C 151.378906 237.480469 151.496094 237.453125 151.597656 237.421875 C 151.742188 237.371094 151.816406 237.257812 151.878906 237.132812 C 151.933594 237.015625 152.132812 237.03125 152.15625 236.875 C 152.1875 236.695312 152.363281 236.640625 152.457031 236.507812 C 152.546875 236.378906 152.605469 236.214844 152.703125 236.085938 C 152.800781 235.949219 152.933594 235.847656 153.027344 235.710938 C 153.058594 235.664062 153.25 235.75 153.210938 235.667969 C 153.132812 235.503906 153.238281 235.511719 153.277344 235.457031 C 153.382812 235.316406 153.507812 235.191406 153.628906 235.0625 C 153.765625 234.917969 153.886719 234.757812 154.039062 234.621094 C 154.140625 234.535156 154.050781 234.296875 154.027344 234.117188 C 154.027344 234.101562 154.007812 234.070312 153.988281 234.046875 Z M 229.375 225.140625 C 229.332031 224.964844 229.3125 224.78125 229.261719 224.609375 C 229.222656 224.472656 229.160156 224.339844 229.085938 224.210938 C 229.011719 224.09375 228.90625 223.996094 228.832031 223.878906 C 228.703125 223.691406 228.582031 223.492188 228.429688 223.304688 C 228.3125 223.175781 228.191406 223.035156 228.027344 222.929688 C 227.964844 222.882812 227.816406 222.90625 227.800781 222.855469 C 227.75 222.6875 227.578125 222.691406 227.4375 222.652344 C 227.058594 222.5625 226.839844 222.707031 226.585938 222.808594 C 226.183594 222.988281 225.835938 223.242188 225.570312 223.566406 C 225.433594 223.726562 225.34375 223.917969 225.257812 224.101562 C 225.179688 224.277344 225.097656 224.445312 224.96875 224.609375 C 224.902344 224.6875 224.898438 224.796875 224.875 224.898438 C 224.847656 225.003906 224.859375 225.132812 224.792969 225.222656 C 224.71875 225.316406 224.785156 225.40625 224.773438 225.492188 C 224.710938 226.023438 224.839844 226.566406 225.011719 227.03125 C 225.179688 227.507812 225.472656 227.84375 225.585938 228.328125 C 225.625 228.472656 225.71875 228.65625 225.933594 228.695312 C 226.015625 228.832031 226.164062 228.925781 226.3125 228.976562 C 226.464844 229.027344 226.613281 229.046875 226.757812 229.078125 C 227.082031 229.144531 227.449219 229.226562 227.714844 228.992188 C 227.722656 228.980469 227.757812 228.980469 227.769531 228.992188 C 227.859375 229.074219 227.921875 228.984375 227.996094 228.976562 C 228.234375 228.9375 228.363281 228.738281 228.507812 228.605469 C 228.574219 228.542969 228.640625 228.472656 228.710938 228.40625 C 228.753906 228.367188 228.777344 228.300781 228.796875 228.234375 C 228.824219 228.140625 228.777344 228.039062 228.679688 227.96875 C 228.46875 227.8125 228.285156 227.875 228.140625 227.949219 C 227.875 228.082031 227.660156 228.183594 227.46875 228.261719 C 227.367188 228.304688 227.25 228.277344 227.148438 228.253906 C 227.046875 228.222656 226.972656 228.199219 226.863281 228.234375 C 226.855469 228.238281 226.839844 228.234375 226.835938 228.222656 C 226.816406 228.1875 226.816406 228.132812 226.792969 228.121094 C 226.769531 228.105469 226.710938 228.136719 226.675781 228.121094 C 226.632812 228.101562 226.636719 228.023438 226.574219 228.035156 C 226.433594 228.058594 226.394531 227.953125 226.394531 227.871094 C 226.394531 227.671875 226.246094 227.515625 226.179688 227.335938 C 226.121094 227.175781 225.972656 227.054688 226.027344 226.863281 C 226.039062 226.828125 226.015625 226.773438 225.976562 226.769531 C 225.871094 226.761719 225.882812 226.6875 225.859375 226.640625 C 225.78125 226.453125 225.699219 226.257812 225.714844 226.070312 C 225.730469 225.898438 225.507812 225.714844 225.695312 225.539062 C 225.707031 225.53125 225.710938 225.507812 225.699219 225.5 C 225.574219 225.433594 225.648438 225.363281 225.664062 225.292969 C 225.6875 225.179688 225.710938 225.0625 225.8125 224.964844 C 225.910156 224.871094 225.902344 224.71875 225.964844 224.597656 C 226.035156 224.476562 226.121094 224.394531 226.183594 224.308594 C 226.269531 224.195312 226.351562 224.078125 226.449219 223.976562 C 226.484375 223.9375 226.523438 223.914062 226.53125 223.835938 C 226.542969 223.757812 226.613281 223.703125 226.710938 223.746094 C 226.730469 223.753906 226.761719 223.765625 226.761719 223.75 C 226.75 223.609375 226.84375 223.628906 226.898438 223.621094 C 226.960938 223.605469 227 223.527344 227.058594 223.503906 C 227.101562 223.484375 227.167969 223.484375 227.199219 223.5 C 227.226562 223.511719 227.25 223.53125 227.28125 223.5625 C 227.34375 223.628906 227.445312 223.667969 227.570312 223.746094 C 227.691406 223.816406 227.699219 223.992188 227.835938 224.082031 C 228 224.195312 228.050781 224.40625 228.152344 224.578125 C 228.261719 224.753906 228.382812 224.933594 228.46875 225.125 C 228.558594 225.324219 228.601562 225.539062 228.671875 225.746094 C 228.695312 225.824219 228.589844 225.9375 228.652344 225.964844 C 228.777344 226.027344 228.742188 226.128906 228.761719 226.210938 C 228.816406 226.4375 228.835938 226.664062 228.839844 226.886719 C 228.847656 227.136719 228.832031 227.386719 228.753906 227.566406 C 228.695312 227.679688 228.796875 227.8125 228.738281 227.96875 C 228.734375 227.976562 228.738281 228 228.742188 228.023438 C 228.757812 228.078125 228.8125 228.164062 228.894531 228.21875 C 228.96875 228.269531 229.082031 228.296875 229.121094 228.253906 C 229.296875 228.082031 229.480469 227.925781 229.53125 227.707031 C 229.601562 227.335938 229.613281 226.996094 229.601562 226.664062 C 229.59375 226.328125 229.480469 226.023438 229.511719 225.679688 C 229.527344 225.488281 229.417969 225.316406 229.375 225.140625 Z M 234.257812 223.632812 C 234.285156 223.769531 234.363281 223.902344 234.382812 224.046875 C 234.386719 224.199219 234.378906 224.351562 234.351562 224.496094 C 234.28125 224.675781 234.210938 224.84375 234.121094 225.003906 C 234.027344 225.164062 234.003906 225.375 233.839844 225.480469 C 233.574219 225.683594 233.378906 225.929688 233.109375 226.101562 C 232.972656 226.171875 232.84375 226.265625 232.699219 226.316406 C 232.558594 226.371094 232.414062 226.429688 232.273438 226.496094 C 232.179688 226.527344 232.089844 226.519531 232 226.511719 C 231.964844 226.582031 231.953125 226.679688 232.066406 226.761719 C 232.125 226.800781 232.066406 226.890625 232.082031 226.953125 C 232.089844 227.007812 232.148438 227.058594 232.148438 227.113281 C 232.148438 227.15625 232.097656 227.203125 232.082031 227.25 C 232.074219 227.261719 232.074219 227.277344 232.082031 227.292969 C 232.21875 227.550781 232.03125 227.808594 232.070312 228.070312 C 232.105469 228.328125 232.085938 228.59375 232.054688 228.859375 C 232.042969 229.003906 232 229.15625 231.757812 229.242188 C 231.648438 229.28125 231.535156 229.28125 231.46875 229.210938 C 231.417969 229.164062 231.375 229.109375 231.359375 229.0625 C 231.339844 228.980469 231.320312 228.898438 231.300781 228.816406 C 231.265625 228.652344 231.164062 228.484375 231.21875 228.316406 C 231.238281 228.261719 231.175781 228.199219 231.285156 228.15625 C 231.296875 228.152344 231.308594 228.125 231.296875 228.117188 C 231.136719 227.886719 231.246094 227.652344 231.234375 227.421875 C 231.226562 227.222656 231.09375 227.035156 231.148438 226.839844 C 231.019531 226.730469 231.035156 226.601562 231.074219 226.492188 C 231.207031 226.101562 231.101562 225.707031 231.101562 225.324219 C 231.101562 224.925781 231.0625 224.53125 231.042969 224.136719 C 231.035156 224.066406 230.960938 224.015625 231.011719 223.933594 C 231.0625 223.855469 231.011719 223.765625 231.003906 223.675781 C 231 223.601562 230.964844 223.519531 230.988281 223.441406 C 231.019531 223.359375 231.027344 223.28125 231.035156 223.203125 C 231.042969 223.109375 231.027344 222.953125 231.019531 222.828125 C 231.027344 222.597656 230.820312 222.1875 231.214844 222.257812 C 231.472656 222.234375 231.765625 222.1875 231.972656 222.175781 C 232.152344 222.1875 232.332031 222.179688 232.511719 222.179688 C 232.726562 222.226562 232.988281 222.171875 233.191406 222.332031 C 233.277344 222.390625 233.417969 222.378906 233.433594 222.535156 C 233.433594 222.582031 233.5625 222.566406 233.621094 222.609375 C 233.6875 222.664062 233.757812 222.722656 233.8125 222.78125 L 233.957031 222.992188 C 234.03125 223.089844 234.089844 223.191406 234.121094 223.304688 C 234.179688 223.410156 234.234375 223.523438 234.257812 223.632812 Z M 233.382812 224.015625 C 233.363281 223.949219 233.371094 223.875 233.363281 223.800781 C 233.339844 223.738281 233.316406 223.671875 233.261719 223.625 C 233.226562 223.582031 233.191406 223.546875 233.179688 223.492188 C 233.160156 223.445312 233.160156 223.378906 233.105469 223.359375 C 232.996094 223.304688 232.914062 223.238281 232.828125 223.15625 C 232.800781 223.121094 232.769531 223.082031 232.738281 223.050781 C 232.699219 223.019531 232.648438 223.011719 232.601562 223.011719 C 232.539062 223.011719 232.476562 223.0625 232.417969 223.039062 C 232.371094 223.015625 232.292969 222.972656 232.234375 223.097656 C 232.230469 223.109375 232.207031 223.082031 232.191406 223.0625 C 232.128906 222.976562 232.046875 222.980469 231.992188 223.035156 C 231.960938 223.089844 231.984375 223.082031 231.972656 223.089844 C 231.972656 223.097656 231.980469 223.097656 231.964844 223.09375 C 231.953125 223.089844 231.90625 223.078125 231.890625 223.101562 C 231.882812 223.082031 231.90625 223.191406 231.914062 223.246094 C 231.925781 223.316406 231.929688 223.378906 231.90625 223.441406 C 231.851562 223.566406 231.863281 223.683594 231.871094 223.800781 C 231.878906 223.871094 231.824219 223.953125 231.960938 224 C 231.972656 224.003906 231.972656 224.03125 231.964844 224.042969 C 231.808594 224.246094 232.042969 224.425781 232.011719 224.621094 C 231.980469 224.824219 232.023438 225.035156 232.035156 225.234375 C 232.042969 225.289062 232.003906 225.351562 232.097656 225.394531 C 232.132812 225.410156 232.136719 225.46875 232.117188 225.496094 C 232.050781 225.582031 232.046875 225.671875 232.050781 225.757812 C 232.128906 225.738281 232.199219 225.703125 232.277344 225.679688 L 232.429688 225.621094 L 232.558594 225.539062 C 232.636719 225.488281 232.722656 225.453125 232.789062 225.394531 L 232.988281 225.207031 C 233.035156 225.164062 233.109375 225.128906 233.066406 225.015625 C 233.042969 224.957031 233.1875 224.984375 233.21875 224.933594 C 233.277344 224.777344 233.382812 224.640625 233.402344 224.476562 C 233.445312 224.3125 233.394531 224.15625 233.382812 224.015625 Z M 239.707031 228.097656 C 239.566406 228.113281 239.429688 228.019531 239.285156 228.050781 C 239.039062 228.097656 238.789062 228.117188 238.535156 228.132812 C 238.285156 228.144531 238.039062 228.222656 237.773438 228.144531 C 237.632812 228.101562 237.488281 228.175781 237.347656 228.175781 C 237.222656 228.175781 237.015625 228.152344 237.0625 228.132812 C 237.058594 228.121094 237.0625 228.117188 237.050781 228.132812 L 237.019531 228.160156 C 237 228.175781 236.980469 228.183594 236.976562 228.179688 C 236.972656 228.171875 236.96875 228.15625 236.96875 228.136719 L 236.96875 228.105469 L 236.960938 227.980469 C 236.953125 227.859375 236.953125 227.734375 236.933594 227.613281 C 236.925781 227.566406 236.828125 227.5 236.859375 227.480469 C 236.976562 227.398438 236.90625 227.320312 236.910156 227.242188 C 236.925781 227.066406 236.839844 226.890625 236.808594 226.71875 C 236.765625 226.472656 236.753906 226.21875 236.75 225.96875 C 236.757812 225.964844 236.769531 225.910156 236.777344 225.902344 C 236.789062 225.886719 236.808594 225.945312 236.8125 225.886719 C 236.828125 225.765625 236.847656 225.789062 236.859375 225.835938 C 236.894531 225.9375 236.929688 225.871094 236.957031 225.902344 C 236.988281 225.925781 237.015625 225.84375 237.042969 225.972656 C 237.050781 226 237.058594 225.992188 237.0625 225.960938 C 237.074219 225.863281 237.082031 225.902344 237.09375 225.902344 C 237.132812 225.898438 237.171875 225.867188 237.203125 225.910156 C 237.238281 225.953125 237.277344 225.726562 237.308594 225.902344 C 237.308594 225.910156 237.316406 225.910156 237.320312 225.902344 C 237.328125 225.773438 237.34375 225.828125 237.359375 225.828125 C 237.382812 225.828125 237.402344 225.824219 237.425781 225.886719 C 237.449219 225.949219 237.472656 225.890625 237.5 225.902344 C 237.523438 225.917969 237.546875 225.964844 237.566406 225.972656 C 237.59375 225.988281 237.628906 225.984375 237.65625 225.972656 C 237.667969 225.96875 237.683594 225.980469 237.691406 225.921875 C 237.707031 225.863281 237.71875 225.859375 237.734375 225.941406 C 237.738281 225.960938 237.746094 225.984375 237.746094 225.96875 C 237.753906 225.839844 237.773438 225.898438 237.789062 225.902344 C 237.804688 225.90625 237.816406 225.839844 237.832031 225.824219 C 237.855469 225.800781 237.875 225.847656 237.898438 225.882812 C 237.929688 225.929688 237.960938 225.917969 237.992188 225.886719 C 238.019531 225.863281 238.050781 225.964844 238.078125 225.90625 C 238.113281 225.839844 238.152344 225.902344 238.1875 225.886719 C 238.226562 225.871094 238.261719 225.828125 238.300781 225.816406 C 238.339844 225.800781 238.378906 225.820312 238.410156 225.804688 C 238.425781 225.800781 238.441406 225.929688 238.449219 225.878906 C 238.464844 225.765625 238.480469 225.820312 238.5 225.816406 C 238.535156 225.800781 238.582031 225.808594 238.617188 225.808594 C 238.664062 225.808594 238.710938 225.800781 238.753906 225.816406 C 238.78125 225.824219 238.8125 225.675781 238.835938 225.578125 C 238.835938 225.570312 238.839844 225.550781 238.839844 225.53125 C 238.847656 225.425781 238.828125 225.121094 238.816406 225.121094 C 238.789062 225.121094 238.765625 225.019531 238.734375 225.035156 C 238.6875 225.058594 238.632812 225.046875 238.585938 225.039062 C 238.535156 225.023438 238.484375 225.082031 238.433594 224.976562 C 238.40625 224.917969 238.378906 224.976562 238.347656 224.960938 C 238.320312 224.945312 238.296875 224.902344 238.265625 224.886719 C 238.246094 224.875 238.222656 224.875 238.203125 224.886719 C 238.183594 224.902344 238.164062 224.953125 238.140625 224.960938 C 238.105469 224.976562 238.074219 224.964844 238.039062 224.964844 C 238.015625 224.964844 237.992188 224.960938 237.96875 224.96875 C 237.957031 224.976562 237.941406 225.066406 237.9375 225.035156 C 237.921875 224.914062 237.910156 224.980469 237.890625 224.96875 C 237.855469 224.941406 237.816406 225.015625 237.785156 225.035156 C 237.726562 225.066406 237.667969 225.050781 237.609375 225.039062 C 237.550781 225.023438 237.492188 225.105469 237.4375 224.96875 C 237.421875 224.9375 237.40625 224.964844 237.390625 224.964844 C 237.378906 224.964844 237.359375 225.007812 237.34375 224.957031 C 237.328125 224.898438 237.320312 224.96875 237.304688 224.96875 C 237.234375 224.960938 237.15625 224.980469 237.082031 224.960938 C 237.011719 224.941406 236.9375 225.035156 236.867188 224.898438 C 236.847656 224.859375 236.824219 224.835938 236.796875 224.964844 C 236.785156 224.941406 236.765625 224.957031 236.75 224.976562 C 236.753906 224.964844 236.75 224.960938 236.753906 224.953125 C 236.785156 224.878906 236.75 224.800781 236.746094 224.730469 C 236.742188 224.648438 236.691406 224.558594 236.742188 224.488281 C 236.792969 224.410156 236.714844 224.363281 236.710938 224.296875 C 236.695312 223.933594 236.648438 223.527344 236.648438 223.199219 C 236.664062 223.175781 236.625 223.128906 236.640625 223.101562 C 236.652344 223.097656 236.675781 223.097656 236.695312 223.109375 C 236.707031 223.113281 236.714844 223.117188 236.726562 223.128906 C 236.730469 223.132812 236.734375 223.136719 236.734375 223.144531 L 236.796875 223.164062 C 236.898438 223.195312 237.015625 223.210938 237.105469 223.074219 C 237.289062 223.117188 237.460938 222.980469 237.644531 222.964844 C 237.859375 222.945312 238.09375 223.039062 238.300781 222.867188 C 238.308594 222.855469 238.328125 222.867188 238.339844 222.882812 C 238.386719 222.980469 238.445312 222.914062 238.5 222.933594 C 238.667969 222.980469 238.816406 222.855469 238.972656 222.800781 C 239.042969 222.769531 239.121094 222.734375 239.195312 222.703125 C 239.242188 222.683594 239.285156 222.628906 239.320312 222.578125 C 239.367188 222.503906 239.347656 222.390625 239.296875 222.289062 C 239.175781 222.066406 239.039062 222.046875 238.910156 222.046875 C 238.671875 222.050781 238.441406 222.054688 238.203125 222.105469 C 237.972656 222.152344 237.726562 221.980469 237.488281 222.128906 C 237.472656 222.136719 237.460938 222.136719 237.449219 222.128906 C 237.40625 222.109375 237.363281 222.0625 237.320312 222.066406 C 237.273438 222.070312 237.222656 222.128906 237.175781 222.144531 C 237.113281 222.15625 237.023438 222.109375 236.992188 222.167969 C 236.914062 222.292969 236.8125 222.277344 236.742188 222.242188 C 236.675781 222.199219 236.492188 222.207031 236.347656 222.226562 C 236.199219 222.242188 236.058594 222.269531 235.898438 222.277344 C 235.832031 222.28125 235.765625 222.292969 235.703125 222.300781 C 235.652344 222.296875 235.667969 222.339844 235.671875 222.375 L 235.683594 222.476562 C 235.691406 222.609375 235.683594 222.722656 235.625 222.835938 C 235.605469 222.882812 235.613281 222.992188 235.648438 223.027344 C 235.75 223.121094 235.722656 223.238281 235.726562 223.296875 C 235.742188 223.484375 235.789062 223.675781 235.753906 223.867188 C 235.726562 224.046875 235.957031 224.210938 235.796875 224.402344 C 235.789062 224.410156 235.789062 224.433594 235.804688 224.441406 C 235.9375 224.484375 235.878906 224.558594 235.886719 224.621094 C 235.894531 224.734375 235.90625 224.839844 235.847656 224.957031 C 235.792969 225.070312 235.855469 225.199219 235.851562 225.324219 C 235.847656 225.4375 235.804688 225.558594 235.804688 225.675781 C 235.796875 225.828125 235.816406 225.988281 235.832031 226.144531 C 235.835938 226.199219 235.835938 226.253906 235.894531 226.3125 C 235.957031 226.371094 235.96875 226.460938 235.890625 226.542969 C 235.875 226.5625 235.851562 226.59375 235.863281 226.597656 C 235.996094 226.648438 235.945312 226.730469 235.945312 226.800781 C 235.945312 226.875 236.015625 226.933594 236.03125 227.003906 C 236.058594 227.109375 236.019531 227.222656 235.992188 227.335938 C 235.953125 227.488281 235.980469 227.648438 236.015625 227.804688 C 236.035156 227.875 236.015625 227.949219 236.007812 228.019531 C 236 228.058594 235.996094 228.09375 235.996094 228.132812 C 235.996094 228.152344 235.996094 228.160156 236 228.195312 C 236.007812 228.226562 236.011719 228.265625 236.019531 228.300781 C 236.101562 228.585938 236.074219 228.917969 236.097656 229.238281 L 236.164062 229.226562 C 236.511719 229.179688 236.871094 229.097656 237.160156 229.054688 C 237.347656 229.019531 237.539062 229.023438 237.726562 228.992188 C 237.792969 228.976562 237.878906 229.101562 237.914062 229.042969 C 237.980469 228.921875 238.0625 228.972656 238.140625 228.960938 C 238.34375 228.925781 238.546875 228.917969 238.75 228.894531 C 238.980469 228.871094 239.207031 228.835938 239.441406 228.828125 C 239.59375 228.820312 239.707031 228.65625 239.832031 228.550781 C 239.839844 228.542969 239.851562 228.523438 239.851562 228.5 C 239.890625 228.382812 239.769531 228.089844 239.707031 228.097656 Z M 247.015625 225.035156 C 246.90625 224.914062 246.964844 224.800781 246.957031 224.691406 L 246.945312 223.789062 L 246.894531 222.765625 C 246.890625 222.535156 246.722656 222.359375 246.609375 222.171875 C 246.601562 222.15625 246.582031 222.144531 246.558594 222.136719 C 246.453125 222.109375 246.15625 222.261719 246.167969 222.355469 C 246.1875 222.554688 246.09375 222.75 246.125 222.953125 C 246.171875 223.308594 246.175781 223.671875 246.175781 224.035156 C 246.171875 224.394531 246.226562 224.761719 246.113281 225.125 C 246.054688 225.316406 246.105469 225.535156 246.085938 225.738281 C 246.066406 225.9375 246.011719 226.128906 245.988281 226.328125 C 245.96875 226.480469 245.960938 226.640625 245.964844 226.800781 C 245.964844 226.875 245.976562 226.949219 245.988281 227.027344 L 246.003906 227.140625 L 246.007812 227.199219 C 246.007812 227.214844 246.011719 227.210938 246.011719 227.214844 C 246.015625 227.257812 246.023438 227.3125 245.988281 227.339844 C 245.964844 227.359375 245.925781 227.347656 245.902344 227.34375 C 245.894531 227.347656 245.84375 227.4375 245.851562 227.386719 C 245.863281 227.332031 245.871094 227.304688 245.867188 227.292969 C 245.867188 227.273438 245.84375 227.28125 245.839844 227.265625 C 245.726562 227.074219 245.5 226.886719 245.332031 226.699219 C 245.050781 226.378906 244.804688 226.027344 244.5625 225.679688 C 244.316406 225.328125 243.992188 225.035156 243.847656 224.609375 C 243.816406 224.507812 243.722656 224.429688 243.65625 224.34375 C 243.582031 224.246094 243.472656 224.167969 243.453125 224.054688 C 243.441406 223.992188 243.410156 223.957031 243.375 223.929688 C 243.335938 223.894531 243.308594 223.890625 243.25 223.808594 C 243.101562 223.613281 242.957031 223.398438 242.804688 223.21875 C 242.640625 223.050781 242.511719 223 242.375 222.964844 C 242.226562 222.925781 242.007812 222.949219 241.847656 223.046875 C 241.675781 223.152344 241.609375 223.261719 241.546875 223.398438 C 241.5 223.5 241.464844 223.621094 241.46875 223.785156 L 241.492188 224.78125 C 241.492188 225.003906 241.476562 225.230469 241.425781 225.457031 C 241.386719 225.613281 241.367188 225.785156 241.496094 225.9375 C 241.445312 226.210938 241.578125 226.464844 241.589844 226.738281 C 241.601562 227.054688 241.5 227.378906 241.667969 227.691406 C 241.675781 227.707031 241.667969 227.734375 241.652344 227.746094 C 241.546875 227.808594 241.609375 227.890625 241.59375 227.960938 C 241.535156 228.199219 241.652344 228.421875 241.695312 228.648438 C 241.71875 228.753906 241.742188 228.871094 241.765625 228.980469 C 241.78125 229.046875 241.832031 229.121094 241.878906 229.183594 C 241.945312 229.265625 242.0625 229.269531 242.167969 229.207031 C 242.40625 229.078125 242.4375 228.875 242.449219 228.675781 C 242.460938 228.320312 242.472656 227.957031 242.433594 227.605469 C 242.390625 227.253906 242.574219 226.902344 242.429688 226.554688 C 242.417969 226.535156 242.425781 226.515625 242.429688 226.496094 C 242.453125 226.433594 242.5 226.371094 242.496094 226.3125 C 242.492188 226.238281 242.4375 226.171875 242.425781 226.101562 C 242.410156 226.011719 242.460938 225.890625 242.410156 225.839844 C 242.289062 225.71875 242.308594 225.578125 242.351562 225.476562 C 242.449219 225.230469 242.386719 224.996094 242.410156 224.753906 C 242.414062 224.699219 242.414062 224.648438 242.410156 224.59375 C 242.40625 224.550781 242.398438 224.460938 242.398438 224.472656 C 242.398438 224.460938 242.410156 224.433594 242.476562 224.476562 L 242.488281 224.484375 C 242.496094 224.492188 242.492188 224.488281 242.460938 224.460938 C 242.367188 224.367188 242.40625 224.382812 242.40625 224.371094 C 242.375 224.320312 242.457031 224.222656 242.492188 224.347656 C 242.5 224.394531 242.511719 224.339844 242.546875 224.328125 C 242.574219 224.320312 242.617188 224.351562 242.570312 224.433594 C 242.570312 224.453125 242.589844 224.484375 242.601562 224.476562 C 242.753906 224.460938 242.765625 224.578125 242.824219 224.65625 C 242.921875 224.789062 243.019531 224.90625 243.066406 225.082031 C 243.113281 225.25 243.273438 225.367188 243.371094 225.515625 C 243.460938 225.660156 243.523438 225.824219 243.617188 225.964844 C 243.742188 226.152344 243.882812 226.335938 244.027344 226.511719 C 244.082031 226.574219 244.121094 226.640625 244.21875 226.679688 C 244.320312 226.71875 244.402344 226.824219 244.402344 226.957031 C 244.402344 226.988281 244.414062 227.035156 244.421875 227.035156 C 244.578125 227.03125 244.601562 227.15625 244.660156 227.238281 C 244.722656 227.332031 244.828125 227.363281 244.902344 227.4375 C 244.960938 227.496094 245.003906 227.5625 245.042969 227.632812 C 245.089844 227.714844 245.089844 227.75 245.183594 227.90625 C 245.234375 227.992188 245.289062 228.082031 245.351562 228.175781 C 245.546875 228.433594 245.757812 228.523438 246.015625 228.527344 C 246.316406 228.527344 246.699219 228.433594 246.8125 228.105469 C 246.847656 227.890625 246.867188 227.664062 246.910156 227.449219 L 246.933594 227.160156 C 246.941406 227.09375 246.945312 227.027344 246.945312 226.957031 C 246.945312 226.6875 246.910156 226.417969 246.910156 226.148438 C 246.910156 225.867188 246.941406 225.589844 246.929688 225.308594 C 246.933594 225.199219 247.070312 225.089844 247.015625 225.035156 Z M 142.519531 103.742188 C 141.957031 110.335938 135.546875 107.941406 134.414062 107.65625 C 133.285156 107.371094 130.382812 111.117188 135.582031 112.828125 C 140.789062 114.542969 146.8125 111.617188 148.960938 106.070312 C 151.105469 100.519531 145.023438 94.785156 140.523438 93.101562 C 136.042969 91.117188 136.710938 87.390625 142.480469 87.0625 C 146.117188 87.09375 147.066406 83.347656 144.785156 82.117188 C 138.351562 79.980469 129.113281 84.769531 131.667969 93.351562 C 133.714844 98.707031 143.078125 97.144531 142.519531 103.742188 Z M 162.351562 109.5625 C 162.71875 108.496094 162.738281 104.414062 162.617188 99.898438 L 173.160156 99.664062 C 173.21875 104.664062 173.535156 109.0625 174.179688 109.851562 C 175.695312 111.71875 177.410156 111.925781 178.21875 108.90625 C 179.03125 105.886719 179.648438 87.851562 178.757812 85.007812 C 177.859375 82.167969 175.757812 80.308594 174.1875 83.5 C 173.675781 84.542969 173.328125 88.996094 173.203125 93.960938 C 170.121094 94.144531 164.847656 94.601562 162.429688 94.628906 C 162.222656 90.058594 161.949219 86.0625 161.824219 85.386719 C 161.304688 82.5625 157.070312 79.421875 155.996094 84.570312 C 155.703125 85.992188 156.082031 109.046875 157.570312 111.878906 C 159.058594 114.710938 161.46875 112.125 162.351562 109.5625 Z M 214.015625 111.679688 C 212.523438 107.203125 212.984375 86.335938 214.722656 83.050781 C 215.59375 81.867188 229 78.730469 230.738281 89.792969 C 232.148438 98.773438 223.15625 103.160156 218.5625 103.695312 C 218.582031 106.878906 218.328125 106.550781 218.515625 108.335938 C 219.0625 113.550781 215.679688 114.414062 214.015625 111.679688 Z M 218.574219 98.019531 C 220.867188 97.261719 225.015625 95.335938 225.074219 91.296875 C 225.140625 86.59375 220.539062 87.621094 218.726562 88.097656 C 218.675781 90.613281 218.601562 94.265625 218.574219 98.019531 Z M 184.03125 105.722656 C 180.78125 97.847656 183.285156 81.234375 195.21875 81.34375 C 205.136719 81.429688 209.933594 98.277344 204.660156 107.328125 C 199.382812 116.375 188.035156 115.417969 184.03125 105.722656 Z M 190.03125 101.90625 C 192.890625 110.4375 198.480469 108.40625 200.515625 101.539062 C 202.554688 94.671875 199.632812 88.320312 196.347656 87.546875 C 193.066406 86.78125 186.25 90.617188 190.03125 101.90625 Z M 190.03125 101.90625 " fill-opacity="1" fill-rule="nonzero"/></svg>